<?xml version="1.0" encoding="utf-8"?>
<svg version="1.1" id="Layer_1" xmlns="http://www.w3.org/2000/svg" x="0px" y="0px" width="1280px" viewBox="0 0 1280 1280" enable-background="new 0 0 1280 1280" xmlns:bx="https://boxy-svg.com" height="1280px"><defs><bx:export><bx:file format="svg" path="OGCraft.svg"/></bx:export></defs><path fill="#AB6572" opacity="1.000000" stroke="none" d=" M525.876709,1077.037842 C515.188354,1076.031616 504.480713,1075.190186 493.820435,1073.943848 C489.101196,1073.392212 484.477753,1072.020752 479.212952,1070.620117 C472.328766,1069.148438 466.060272,1067.955078 459.751587,1067.038330 C451.437592,1065.830322 443.104004,1064.731934 434.754974,1063.800415 C430.509674,1063.326782 426.212158,1063.321411 421.938232,1063.104370 C411.949310,1061.769409 401.961792,1060.423584 391.970520,1059.106201 C388.921265,1058.704224 385.861664,1058.380371 382.210205,1057.618774 C376.024628,1056.487793 370.435608,1055.758789 364.846619,1055.029785 C364.846619,1055.029785 364.395386,1054.990234 363.834656,1054.740479 C358.556763,1053.879028 353.834351,1053.305176 349.123688,1052.647217 C340.710083,1051.471924 332.303589,1050.245972 323.894165,1049.041016 C311.238922,1047.726685 298.577423,1046.468506 285.932556,1045.061035 C282.482178,1044.676880 279.081818,1043.843384 274.949524,1042.851074 C271.439484,1042.334229 268.638428,1042.182495 265.837402,1042.030640 C265.837402,1042.030640 265.394958,1041.993286 264.865234,1041.742920 C251.520706,1039.675171 238.705933,1037.857788 225.891159,1036.040527 C214.208450,1035.035278 202.507584,1034.198975 190.851517,1032.945923 C185.795929,1032.402466 180.832642,1031.000366 175.093475,1029.735474 C172.348373,1028.726318 170.386902,1027.512329 168.318085,1027.287842 C154.183594,1025.754883 140.026566,1024.429565 125.876801,1023.037231 C118.065201,1022.357727 110.210266,1021.991577 102.453011,1020.918945 C92.883224,1019.595764 83.394699,1017.684814 73.273315,1015.731567 C71.327652,1014.962952 70.010956,1014.220459 68.626938,1014.060486 C55.670406,1012.563110 42.687935,1011.275391 29.758848,1009.577515 C28.395864,1009.398499 26.818325,1007.153748 26.258265,1005.547302 C25.633738,1003.756104 26.030468,1001.599243 26.030197,999.601501 C26.009453,846.370911 25.997431,693.140320 25.943424,539.909729 C25.942499,537.287415 25.438551,534.665283 25.169327,532.043030 C25.107111,530.049316 24.990490,528.055603 24.990438,526.061890 C24.986839,386.706726 24.988258,247.351562 25.040649,107.996414 C25.041397,106.008232 25.690121,104.020302 26.681116,102.329727 C27.529850,104.598289 27.901852,106.568626 27.910540,108.540565 C27.964863,120.869919 27.937626,133.199646 27.938236,145.529236 C27.938963,160.191467 27.945190,174.853683 27.937645,189.515915 C27.936213,192.297577 27.855774,195.057968 31.865831,194.985138 C38.525791,194.864136 45.196255,194.994675 51.845432,194.671890 C67.617378,193.906235 83.381828,192.976639 99.143906,192.023849 C103.446770,191.763748 105.097191,193.522949 105.035248,197.845825 C104.865791,209.673141 104.966873,221.504501 104.986168,233.334229 C104.996910,239.926880 105.117020,240.119003 111.691902,240.044861 C139.662735,239.729431 167.632736,239.342972 195.603302,239.003647 C203.952820,238.902344 203.962723,238.933929 203.964081,230.684326 C203.968948,201.359879 204.010361,172.035278 203.917542,142.711121 C203.904419,138.569458 204.854340,136.203110 209.618835,135.903427 C220.062515,135.246536 230.467224,133.988007 240.906769,133.238831 C245.665497,132.897339 250.469070,133.180817 255.736069,133.180817 C255.842636,135.099213 256.040131,137.045654 256.044403,138.992523 C256.072540,151.821915 256.054138,164.651398 256.061096,177.480850 C256.065247,185.152405 256.097321,185.287842 263.930389,184.959747 C278.050262,184.368332 292.161377,183.567123 306.281311,182.976578 C309.781921,182.830154 310.512604,181.495346 310.425323,177.978149 C310.061768,163.327301 310.159576,148.664780 310.113525,134.006470 C310.103729,130.892242 311.423279,129.101700 314.821198,128.817169 C319.125977,128.456711 323.380585,127.470253 327.686249,127.151489 C355.694092,125.077972 383.708435,123.090546 411.726746,121.163605 C413.478027,121.043159 415.280914,121.673004 417.046326,122.426620 C417.025482,139.778625 416.967773,156.658157 417.097107,173.536285 C417.108643,175.045578 418.333679,176.545593 419.464111,178.051849 C440.867432,177.348328 461.805206,176.726212 482.733612,175.873825 C487.463013,175.681229 489.189331,177.218857 489.109070,182.087616 C488.862030,197.068954 489.154327,212.058884 488.941162,227.041260 C488.876282,231.600220 490.359558,233.198303 494.973511,233.060974 C512.429810,232.541397 529.894653,232.290924 547.357300,232.004517 C555.040100,231.878510 555.052490,231.949036 555.051514,224.241043 C555.046875,188.942062 555.028625,153.643066 555.032959,118.344078 C555.033691,112.077606 555.840942,111.286545 562.225647,111.002342 C565.216492,110.869217 568.212830,110.830559 571.199646,110.639786 C589.761292,109.454224 608.320923,108.237686 626.881226,107.031418 C626.924866,109.028656 627.006653,111.025894 627.006653,113.023125 C627.012329,436.410950 627.012085,759.798828 627.012085,1083.186646 C627.012085,1085.304077 627.012085,1087.421631 627.012085,1090.324463 C620.077026,1089.763916 613.718628,1089.359741 607.385376,1088.709839 C599.730042,1087.924438 592.076294,1087.069458 584.459839,1085.979004 C579.210999,1085.227661 574.026733,1084.025269 568.214111,1082.621582 C567.222961,1081.920044 566.855286,1081.400146 566.436157,1081.354492 C552.919434,1079.887329 539.397705,1078.466187 525.876709,1077.037842 M236.748611,781.782166 C238.479691,781.531006 240.210770,781.279846 242.344604,781.688171 C243.381729,782.107849 244.400848,782.836060 245.458862,782.897827 C253.077438,783.342529 260.706055,783.611145 268.327240,784.016296 C275.616089,784.403809 282.901428,784.863098 290.185425,785.335449 C313.844269,786.869690 337.501770,788.424561 361.595215,790.007507 C361.595215,790.007507 362.008331,790.149780 362.709930,790.508057 C367.283508,791.269653 371.837616,792.238403 376.442139,792.670288 C377.879822,792.805115 379.453491,791.489868 381.002533,790.406555 C381.002533,790.406555 381.145386,789.997314 381.512512,789.259827 C381.677887,786.946411 381.987671,784.632996 381.988007,782.319580 C382.009644,635.503296 382.006165,488.686981 382.004242,341.870697 C382.004242,340.537537 381.971710,339.204010 381.994080,337.871338 C382.045135,334.829803 381.104736,333.455872 377.547028,333.731720 C365.622711,334.656189 353.668030,335.191925 341.723297,335.846130 C340.735718,335.900238 339.728455,335.613098 338.742615,335.676392 C333.163666,336.034515 327.588440,336.451233 321.157379,336.988434 C319.149994,337.003510 317.142609,337.018616 314.180511,337.004730 C304.797180,337.282043 295.413849,337.559326 285.603027,337.987976 C285.603027,337.987976 285.151367,338.028534 284.194031,337.996735 C267.722382,338.338135 251.251511,338.733917 234.778381,338.975586 C231.431351,339.024689 229.781876,340.186035 229.984268,343.662781 C230.100250,345.655304 229.988235,347.660675 229.992935,349.660217 C230.313828,486.109100 230.636566,622.557983 230.957245,759.006897 C230.973679,766.005432 230.973572,773.003906 231.300766,780.635864 C232.869751,781.058655 234.438736,781.481506 236.748611,781.782166 z"/><path fill="#708EAE" opacity="1.000000" stroke="none" d=" M1255.859863,716.000061 C1255.908325,729.691162 1255.956909,743.382324 1255.609741,757.737854 C1254.846680,759.115112 1254.164795,759.825500 1254.159058,760.541199 C1254.070190,771.603882 1254.018188,782.667725 1254.126587,793.729675 C1254.137329,794.824402 1255.251953,795.908386 1255.854126,796.997314 C1255.878662,869.971008 1255.903442,942.944641 1255.919800,1015.918335 C1255.919800,1016.064819 1255.795410,1016.211365 1255.503296,1016.857971 C1248.498169,1017.567078 1241.206665,1018.205444 1233.941406,1019.065002 C1224.108643,1020.228333 1214.301758,1021.608032 1204.472290,1022.800598 C1200.073486,1023.334229 1195.652344,1023.717102 1191.231567,1024.027100 C1185.478516,1024.430664 1179.680054,1024.399048 1173.965088,1025.086060 C1165.378174,1026.118408 1156.861572,1027.724487 1148.285522,1028.864502 C1143.564819,1029.492065 1138.786377,1029.707031 1134.028931,1030.032959 C1128.606689,1030.404419 1123.144287,1030.413696 1117.761353,1031.080811 C1109.248779,1032.135986 1100.803101,1033.721436 1092.299072,1034.857788 C1087.578979,1035.488647 1082.801025,1035.706177 1078.043823,1036.033325 C1072.621704,1036.406372 1067.161377,1036.427612 1061.775513,1037.079224 C1052.931885,1038.149170 1044.147217,1039.696411 1035.313354,1040.858521 C1030.755249,1041.458130 1026.130371,1041.535278 1021.561523,1042.070312 C1011.075256,1043.298340 1000.610535,1044.710449 990.125305,1045.947388 C985.883301,1046.447876 981.613525,1046.729126 977.351074,1047.035889 C967.834412,1047.720337 958.283020,1048.066040 948.803589,1049.086792 C935.962219,1050.469482 923.179199,1052.388672 910.361633,1054.002075 C907.107117,1054.411621 903.806824,1054.446777 900.544373,1054.806396 C891.170959,1055.839478 881.820251,1057.099731 872.434265,1057.993286 C860.335999,1059.145142 847.970276,1058.877197 836.169067,1061.358154 C824.933838,1063.720093 813.664124,1063.676147 802.453918,1065.054810 C790.145447,1066.568359 777.889832,1068.520630 765.572937,1069.952881 C757.089233,1070.939453 748.521423,1071.186890 740.025757,1072.089844 C730.177856,1073.136597 720.373718,1074.589355 710.538696,1075.765991 C705.975281,1076.312012 701.389587,1076.713501 696.803223,1077.016968 C690.550110,1077.430786 684.286560,1077.688232 677.108398,1078.013672 C672.506287,1078.008789 668.823242,1078.003052 665.140198,1077.997559 C665.092773,1077.545410 665.045349,1077.093262 665.254761,1075.940674 C665.676575,1073.260132 665.985962,1071.280151 665.986145,1069.300171 C666.006042,887.992676 666.005127,706.685120 665.964722,525.377625 C665.964233,523.258667 665.432434,521.139771 665.148682,519.020874 C665.089294,518.026001 664.977905,517.031067 664.977905,516.036194 C664.982117,391.332642 664.994446,266.629089 665.424438,141.461151 C666.746887,140.977432 667.651306,140.958115 668.630981,141.405548 C668.795715,147.101807 669.024780,152.333893 668.927063,157.559891 C668.858582,161.220825 670.132324,163.199371 674.221924,163.113892 C675.292053,163.215179 676.145630,163.137604 677.381348,163.072113 C679.510986,163.364639 681.258484,163.645065 683.298523,164.132690 C684.765503,164.484161 685.939880,164.628418 687.566406,164.790619 C697.122009,165.578918 706.227844,166.322128 715.328369,167.126724 C726.025208,168.072495 726.023193,168.095596 726.227966,156.662354 C726.026001,153.862854 725.633972,151.391403 725.222229,148.456879 C725.202515,134.945892 725.202515,121.897995 725.202515,109.114006 C726.314148,108.759911 726.638306,108.544800 726.934204,108.578407 C742.725342,110.371925 758.502563,112.297173 774.308533,113.946960 C781.109375,114.656822 781.841553,115.085732 781.907410,122.080490 C781.991821,131.058884 781.903564,140.039154 782.018799,149.016953 C782.106201,155.823151 782.395691,162.626709 782.594666,169.431473 C782.705261,173.211334 784.405579,174.777008 788.421326,175.151169 C803.292297,176.536728 818.121887,178.367050 832.976685,180.490570 C833.575684,185.339005 834.164978,189.727142 834.768250,194.576324 C834.842407,205.024414 834.902588,215.011459 834.767944,225.354919 C834.977478,229.843277 835.381836,233.975266 836.134888,238.318344 C852.478943,240.337448 868.477356,242.120209 884.467834,243.970993 C888.528992,244.441055 890.170654,242.969879 890.049194,238.722198 C889.564758,221.778442 889.339844,204.827454 888.962219,187.880417 C888.710632,176.587585 888.363342,165.296921 888.250732,153.645721 C888.282898,148.856552 888.123108,144.426956 887.964600,139.533936 C887.964844,137.587189 887.965515,136.103882 887.962341,134.620575 C887.944763,126.512703 888.107666,126.376854 896.220642,128.105743 C897.289795,128.220810 898.144043,128.155502 899.407227,128.126129 C911.380432,129.469070 922.934082,130.883102 934.513245,132.041870 C941.175293,132.708572 942.369202,133.419144 942.740112,140.013229 C943.095215,146.324753 942.918274,152.666183 942.843567,159.177826 C942.803162,159.909439 942.894470,160.457703 942.987305,161.474243 C943.311768,171.644180 943.634644,181.345825 944.034668,191.276093 C944.740479,191.686859 945.369141,191.869034 946.392456,192.063354 C948.859924,192.361755 950.932739,192.647980 953.254639,193.126404 C954.668640,193.244781 955.833496,193.170959 957.376953,193.125061 C959.504761,193.422119 961.254150,193.691254 963.272217,194.155273 C964.401001,194.489304 965.261047,194.628464 966.569397,194.786591 C977.633362,195.612778 988.248962,196.420013 999.004150,197.466156 C1000.095459,197.816223 1001.047058,197.927383 1002.396851,198.048492 C1004.865234,198.349274 1006.935425,198.640106 1009.221863,199.110260 C1010.291626,199.214813 1011.145081,199.140015 1012.392944,199.078598 C1014.859436,199.382553 1016.931641,199.673126 1019.272949,200.157471 C1020.401062,200.491867 1021.260071,200.632523 1022.570923,200.791718 C1029.639648,201.364441 1036.272583,201.776077 1042.868774,202.516525 C1048.466675,203.144882 1049.098755,202.883774 1049.018433,197.334045 C1048.792725,181.718933 1048.451416,166.105469 1048.133423,150.491806 C1048.074341,147.591125 1048.067871,145.199829 1052.313843,145.721207 C1066.647949,147.481277 1081.007812,149.036926 1095.368652,150.571304 C1113.524170,152.511124 1131.690186,154.353409 1149.997314,156.484314 C1150.786133,157.099609 1151.429565,157.468338 1152.105225,157.853638 C1152.137573,157.870209 1152.176025,157.931854 1152.140869,158.314148 C1152.417480,160.131882 1152.729004,161.567322 1153.038330,163.471222 C1153.341675,179.625061 1153.647339,195.310440 1153.758911,211.357574 C1153.728882,217.146774 1153.892944,222.574188 1154.126709,228.411530 C1154.417236,231.293686 1154.805908,233.764282 1154.829590,236.238403 C1154.926880,246.363571 1154.944946,256.489899 1154.920166,266.615601 C1154.912720,269.669800 1155.694336,271.657928 1159.271240,271.915283 C1173.480957,272.937836 1187.678955,274.121582 1202.024414,275.483398 C1203.135620,275.525452 1204.103638,275.329651 1205.092285,274.657135 C1205.081787,258.454193 1205.051025,242.728027 1205.215088,226.658524 C1205.253906,223.209229 1205.097900,220.103271 1204.942627,216.537872 C1204.646240,200.673996 1204.310181,185.270157 1204.069824,169.864838 C1203.963013,163.011612 1204.050659,163.010239 1211.172607,164.072052 C1211.894165,164.166016 1212.445068,164.108337 1213.399048,164.126007 C1227.684326,165.712921 1241.566406,167.224457 1255.448608,168.736008 C1255.599731,168.857330 1255.750977,168.978638 1255.544922,169.702759 C1254.786743,172.710129 1254.039185,175.114273 1254.036377,177.519302 C1253.971802,232.122284 1253.988770,286.725372 1253.989380,341.328430 C1253.989380,342.826630 1253.927246,344.326630 1253.980835,345.822662 C1254.101196,349.187988 1252.300049,350.046265 1249.245361,349.913666 C1240.451172,349.531860 1231.649658,349.320221 1222.850952,349.041748 C1220.221436,349.045776 1217.592041,349.049774 1214.203857,348.869568 C1210.103638,347.806030 1206.801636,346.407288 1203.412720,346.149139 C1194.810791,345.493805 1186.166748,345.409729 1177.545044,344.985901 C1165.945557,344.415619 1154.356445,343.608643 1142.752808,343.161346 C1135.822754,342.894196 1128.873657,343.120972 1121.933105,343.125732 C1119.604248,343.099731 1117.275269,343.073730 1114.169922,342.859558 C1109.062744,341.796448 1104.757935,340.342590 1100.396484,340.145844 C1080.560303,339.250854 1060.708130,338.709717 1040.861694,338.041321 C1038.225464,338.043152 1035.589233,338.044983 1032.168945,337.858337 C1028.213501,337.459839 1025.041992,337.249756 1021.870422,337.039703 C1013.950562,336.700043 1006.033569,336.206970 998.110168,336.060577 C988.766479,335.887970 979.414734,336.136597 970.071838,335.943695 C967.017334,335.880615 963.989075,334.934937 960.930725,334.529510 C958.822815,334.250061 956.551086,333.670929 954.584290,334.159210 C949.273254,335.477753 944.409058,334.592255 939.597473,332.358734 C938.888794,332.029755 937.986267,332.072662 937.168945,332.031036 C930.418335,331.687195 923.666748,331.364044 916.212158,330.970795 C915.012329,331.791687 914.131042,332.654663 914.079590,333.564575 C913.638672,341.362335 913.058533,349.168457 913.055176,356.972321 C912.994690,497.893829 913.009277,638.815369 913.008057,779.736877 C913.008057,780.902893 913.095276,782.075806 912.999268,783.233704 C912.638733,787.582642 914.673889,789.270752 918.922607,789.035156 C926.720581,788.602783 934.531128,788.400696 942.331604,788.007751 C961.247009,787.055115 980.153442,785.898499 999.075012,785.097778 C1026.478638,783.938293 1053.890137,782.947388 1081.303589,782.041992 C1089.978027,781.755493 1089.993530,781.986084 1089.993774,773.501099 C1089.994751,722.196350 1089.991333,670.891541 1089.990967,619.586792 C1089.990845,611.000549 1089.994385,610.997742 1098.339111,610.995728 C1114.829956,610.991760 1131.321289,611.060242 1147.810669,610.902710 C1149.897583,610.882874 1151.973267,609.684570 1154.508057,609.031311 C1158.973267,608.728210 1162.984619,608.425964 1166.995972,608.123779 C1176.073975,608.081055 1185.152100,608.038330 1194.925171,608.504822 C1199.442505,608.629883 1203.264893,608.245728 1207.087158,607.861511 C1222.408081,607.904907 1237.729004,607.948303 1253.454834,608.666138 C1253.909912,642.796936 1253.927246,676.253540 1254.089478,709.709351 C1254.099731,711.809082 1255.243408,713.903320 1255.859863,716.000061 z"/><path fill="#818284" opacity="1.000000" stroke="none" d=" M434.395447,1213.690674 C426.644012,1212.657837 419.285217,1211.949707 411.964355,1210.960693 C405.536163,1210.092163 399.159515,1208.848877 392.743561,1207.880737 C385.941559,1206.854492 379.118011,1205.971924 372.307678,1204.999878 C365.231445,1203.990112 358.158142,1202.959473 351.086609,1201.917236 C344.607819,1200.962402 338.135895,1199.960571 331.655853,1199.014404 C324.419037,1197.957520 317.176849,1196.937500 309.936340,1195.906250 C303.126282,1194.936279 296.314575,1193.978027 289.505005,1193.004639 C282.265259,1191.969727 275.025665,1190.933350 267.788788,1189.878540 C261.308716,1188.933960 254.835480,1187.942139 248.353699,1187.009766 C240.790131,1185.921875 233.218140,1184.892578 225.654373,1183.805908 C219.333755,1182.897827 213.021820,1181.929443 206.702332,1181.013428 C199.464508,1179.964233 192.224014,1178.933350 184.982056,1177.912964 C178.007599,1176.930298 171.026779,1175.992310 164.054077,1174.997437 C154.182953,1173.588745 144.313828,1172.164917 134.450104,1170.705444 C131.217789,1170.227295 128.017929,1169.521851 124.781158,1169.083008 C109.570625,1167.020508 94.335251,1165.133911 79.142250,1162.951416 C66.692360,1161.162964 54.289139,1159.049438 41.866302,1157.073120 C36.762791,1156.261230 31.662085,1155.431763 26.282372,1154.565674 C26.282372,1118.324097 26.282372,1082.061035 26.282372,1044.904419 C31.956661,1045.321045 37.631077,1045.559937 43.260426,1046.197144 C49.929157,1046.951782 56.562080,1048.029053 63.205044,1049.003784 C73.066780,1050.450684 82.925346,1051.919556 92.781639,1053.403076 C95.852318,1053.865479 98.901070,1054.481079 101.977325,1054.897583 C114.752884,1056.626465 127.546585,1058.224976 140.311157,1060.030151 C149.869400,1061.381958 159.393326,1062.976318 168.932495,1064.463013 C171.840302,1064.916382 174.741302,1065.419312 177.656647,1065.817505 C192.863770,1067.893921 208.085739,1069.865356 223.279846,1072.032227 C232.941284,1073.409912 242.562363,1075.070190 252.203430,1076.591675 C255.112366,1077.050781 258.022980,1077.503906 260.940857,1077.900757 C273.551758,1079.616333 286.184479,1081.182983 298.772186,1083.053467 C308.092957,1084.438599 317.339447,1086.318237 326.651672,1087.767822 C332.650085,1088.701538 338.715240,1089.198120 344.736847,1089.993652 C351.985931,1090.951416 359.221771,1092.009888 366.461121,1093.040527 C373.272461,1094.010376 380.081940,1094.993530 386.890259,1095.984375 C393.963806,1097.013916 401.033112,1098.072998 408.107819,1099.094482 C414.915833,1100.077637 421.727173,1101.038330 428.539337,1101.992310 C436.108154,1103.052246 443.683502,1104.066650 451.248657,1105.152100 C457.568176,1106.058960 463.873901,1107.061279 470.191437,1107.982300 C477.428162,1109.037231 484.673889,1110.030273 491.910645,1111.084717 C498.390961,1112.029175 504.858948,1113.058716 511.342346,1113.980957 C518.909851,1115.057617 526.492615,1116.027100 534.060425,1117.101807 C540.543884,1118.022827 547.013428,1119.042358 553.493225,1119.989868 C560.729797,1121.047974 567.972839,1122.062500 575.209900,1123.117554 C581.689453,1124.062012 588.161560,1125.057739 594.642822,1125.990234 C602.206238,1127.078613 609.777222,1128.115234 617.342468,1129.191406 C619.943298,1129.561523 622.536804,1129.983398 625.581055,1130.450195 C625.581055,1166.894287 625.581055,1203.598755 625.581055,1241.645874 C619.658203,1240.612427 613.851074,1239.575439 608.034729,1238.593018 C604.650818,1238.021606 601.264832,1237.427002 597.857666,1237.034790 C588.556824,1235.963745 579.192993,1235.329224 569.947998,1233.910034 C554.623535,1231.557983 539.399597,1228.554810 524.080627,1226.162964 C515.163574,1224.770630 506.131378,1224.131958 497.174469,1222.972778 C489.927307,1222.034668 482.719238,1220.797729 475.486267,1219.745361 C469.974487,1218.943359 464.446289,1218.254639 458.933594,1217.458740 C450.886719,1216.296997 442.847198,1215.084351 434.395447,1213.690674 z"/><path fill="#88505A" opacity="1.000000" stroke="none" d="M 626.989 106.564 C 608.365 108.238 589.804 109.454 571.24 110.64 C 568.253 110.831 565.257 110.869 562.266 111.002 C 555.881 111.287 555.073 112.078 555.064 118.344 C 555.015 153.643 554.988 188.942 554.947 224.241 C 554.938 231.949 554.926 231.879 547.243 232.005 C 529.78 232.291 512.315 232.541 494.858 233.061 C 490.244 233.198 488.763 231.6 488.833 227.041 C 489.066 212.059 488.792 197.069 489.059 182.088 C 489.145 177.219 487.421 175.681 482.691 175.874 C 461.762 176.726 440.823 177.348 419.421 177.578 C 418.974 160.634 419.057 144.164 418.929 127.697 C 418.914 125.777 417.729 123.868 417.086 121.954 C 415.308 121.673 413.506 121.043 411.754 121.164 C 383.733 123.091 355.716 125.078 327.706 127.151 C 323.4 127.47 319.144 128.457 314.839 128.817 C 311.441 129.102 310.119 130.892 310.125 134.006 C 310.152 148.665 310.035 163.327 310.38 177.978 C 310.463 181.495 309.731 182.83 306.23 182.977 C 292.109 183.567 277.997 184.368 263.876 184.96 C 256.043 185.288 256.011 185.152 256.017 177.481 C 256.026 164.651 256.061 151.822 256.049 138.993 C 256.047 137.046 255.852 135.099 255.748 133.181 C 250.481 133.181 245.678 132.897 240.919 133.239 C 230.478 133.988 220.072 135.247 209.627 135.903 C 204.863 136.203 203.91 138.569 203.917 142.711 C 203.973 172.035 203.894 201.36 203.852 230.684 C 203.84 238.934 203.83 238.902 195.48 239.004 C 167.509 239.343 139.539 239.729 111.567 240.045 C 104.993 240.119 104.873 239.927 104.87 233.334 C 104.866 221.505 104.78 209.673 104.965 197.846 C 105.032 193.523 103.384 191.764 99.081 192.024 C 83.318 192.977 67.552 193.906 51.779 194.672 C 45.129 194.995 38.459 194.864 31.799 194.985 C 27.789 195.058 27.873 192.298 27.878 189.516 C 27.904 174.854 27.917 160.191 27.935 145.529 C 27.95 133.2 27.993 120.87 27.954 108.541 C 27.948 106.569 27.578 104.598 27.158 102.27 C 27.725 101.282 28.474 100.16 29.304 100.096 C 39.516 99.307 49.762 98.897 59.957 97.937 C 70.202 96.972 80.398 95.478 90.62 94.26 C 94.86 93.754 99.103 93.221 103.361 92.946 C 114.575 92.224 125.822 91.921 137.008 90.909 C 146.758 90.026 156.432 88.324 166.159 87.143 C 170.907 86.566 175.712 86.475 180.468 85.949 C 194.466 84.401 208.437 82.589 222.45 81.196 C 229.88 80.457 237.395 80.604 244.834 79.93 C 252.65 79.221 260.405 77.835 268.218 77.071 C 274.465 76.459 280.765 76.422 287.031 75.976 C 300.358 75.029 313.693 74.15 326.997 72.924 C 338.86 71.831 350.677 70.23 362.53 69.003 C 370.376 68.191 378.25 67.644 387.012 67 C 400.68 65.673 413.447 64.324 426.215 62.974 C 436.127 61.982 446.032 60.911 455.953 60.016 C 469.197 58.822 482.454 57.765 496.43 56.337 C 499.617 56.03 502.113 56.297 504.536 55.989 C 511.452 55.108 518.338 53.993 525.236 52.971 C 536.301 51.983 547.364 50.979 558.431 50.014 C 562.986 49.617 567.548 49.306 572.997 48.999 C 580.952 48.679 588.016 48.317 595.455 47.971 C 597.285 47.426 598.739 46.867 600.592 46.279 C 603.308 46.442 605.625 46.634 608.305 46.862 C 609.841 46.339 611.013 45.78 612.626 45.194 C 615.432 45.152 617.796 45.137 620.49 45.299 C 622.869 45.648 624.92 45.821 626.97 45.993 C 626.997 66.028 627.024 86.063 626.989 106.564 Z" style="opacity: 1;"/><path fill="#536A83" opacity="1.000000" stroke="none" d=" M953.005615,192.934204 C950.932739,192.647980 948.859924,192.361755 946.173584,191.873566 C945.025879,191.463562 944.491638,191.255524 943.957520,191.047485 C943.634644,181.345825 943.311768,171.644180 943.123901,161.292007 C943.164429,160.092484 943.069824,159.543488 942.975220,158.994476 C942.918274,152.666183 943.095215,146.324753 942.740112,140.013229 C942.369202,133.419144 941.175293,132.708572 934.513245,132.041870 C922.934082,130.883102 911.380432,129.469070 899.192566,127.942947 C897.714600,127.791016 896.860168,127.858192 896.005737,127.925369 C888.107666,126.376854 887.944763,126.512703 887.962341,134.620575 C887.965515,136.103882 887.964844,137.587189 887.770203,139.892380 C887.735962,145.144608 887.897461,149.574936 888.058838,154.005280 C888.363342,165.296921 888.710632,176.587585 888.962219,187.880417 C889.339844,204.827454 889.564758,221.778442 890.049194,238.722198 C890.170654,242.969879 888.528992,244.441055 884.467834,243.970993 C868.477356,242.120209 852.478943,240.337448 836.184937,237.850464 C835.578491,233.113831 835.270569,229.056183 834.962708,224.998520 C834.902588,215.011459 834.842407,205.024414 834.827698,194.105408 C834.135620,188.807205 837.032654,183.913849 832.966980,180.030273 C818.121887,178.367050 803.292297,176.536728 788.421326,175.151169 C784.405579,174.777008 782.705261,173.211334 782.594666,169.431473 C782.395691,162.626709 782.106201,155.823151 782.018799,149.016953 C781.903564,140.039154 781.991821,131.058884 781.907410,122.080490 C781.841553,115.085732 781.109375,114.656822 774.308533,113.946960 C758.502563,112.297173 742.725342,110.371925 726.934204,108.578407 C726.638306,108.544800 726.314148,108.759911 725.202515,109.114006 C725.202515,121.897995 725.202515,134.945892 725.164551,148.885193 C725.430420,152.181198 725.734192,154.585800 726.037964,156.990402 C726.023193,168.095596 726.025208,168.072495 715.328369,167.126724 C706.227844,166.322128 697.122009,165.578918 687.406494,164.535934 C685.531616,164.150711 684.268799,164.038101 683.005981,163.925491 C681.258484,163.645065 679.510986,163.364639 677.163818,162.893829 C675.711243,162.780640 674.858337,162.857834 674.005371,162.935028 C670.132324,163.199371 668.858582,161.220825 668.927063,157.559891 C669.024780,152.333893 668.795715,147.101807 668.711304,140.988190 C668.717407,138.127655 668.718506,136.151245 668.786743,133.738113 C668.537109,130.867767 668.220276,128.434143 667.902893,125.531998 C667.633484,113.028999 667.364563,100.994530 667.279663,88.618362 C667.118896,85.194107 666.773987,82.111557 666.384338,78.560875 C666.260193,68.855125 666.155701,59.617630 666.109375,50.379841 C666.072632,43.041576 666.106567,43.053814 673.332581,41.699570 C673.954102,41.583099 674.517395,41.156288 675.107727,40.873634 C681.792053,41.912170 688.476318,42.950718 695.796997,44.375832 C703.581909,45.819569 710.708130,47.080181 717.886108,47.869347 C723.595947,48.497097 729.369202,48.548775 735.114258,48.856201 C735.852844,48.886711 736.591370,48.917221 737.983337,49.246487 C741.866882,50.297611 745.059875,51.357105 748.333191,51.753632 C774.020447,54.865387 799.717590,57.898914 825.427551,60.817219 C828.949646,61.217003 832.558960,60.848343 836.127930,60.835464 C836.553467,60.867523 836.979004,60.899582 837.881531,61.331169 C848.905334,63.118744 859.452087,64.506790 870.423279,65.935745 C875.815430,66.388123 880.783203,66.799583 885.989990,67.501251 C897.152100,69.155609 908.075134,70.519768 919.428467,71.921997 C924.828369,72.369865 929.797974,72.779655 935.006958,73.482956 C946.171814,75.149704 957.097290,76.522957 968.449951,77.931229 C985.379944,79.986473 1001.880920,82.022552 1018.386108,84.022972 C1039.676636,86.603363 1060.962769,89.223801 1082.265747,91.697487 C1099.104858,93.652832 1115.966675,95.412750 1132.936035,97.461578 C1133.702515,97.785522 1134.351562,97.907349 1135.427612,98.047638 C1137.841675,98.133209 1139.828613,98.200325 1141.975098,98.508659 C1142.800781,99.075943 1143.466797,99.402016 1144.470703,99.743576 C1145.888672,99.561966 1146.968628,99.364891 1148.260742,99.034637 C1148.764404,98.697319 1148.930786,98.418457 1148.972046,98.064888 C1149.427124,98.009880 1149.882202,97.954857 1150.600342,98.294296 C1150.872803,98.903717 1150.882324,99.118668 1151.098633,99.604210 C1152.905151,100.202553 1154.504883,100.530304 1156.539307,100.869812 C1165.271729,101.668304 1173.569458,102.455048 1182.009277,103.478622 C1183.101074,103.820839 1184.050659,103.926231 1185.429810,104.046005 C1187.858032,104.142883 1189.856567,104.225380 1192.074219,104.583862 C1194.227783,105.181831 1196.162476,105.503815 1198.454712,105.831375 C1199.527588,105.851112 1200.242798,105.865273 1201.287354,106.102165 C1203.758789,106.525429 1205.900879,106.725967 1208.467285,106.931137 C1213.929321,107.642357 1218.966919,108.348946 1224.187744,109.181168 C1224.913086,109.218842 1225.455078,109.130882 1226.417236,109.054085 C1228.514648,109.129997 1230.192017,109.194748 1232.033691,109.511154 C1233.460815,109.890999 1234.723755,110.019188 1236.393433,110.152267 C1238.153687,110.204231 1239.507324,110.251320 1241.063965,110.567467 C1242.571655,111.135460 1243.876465,111.434387 1245.652832,111.750839 C1247.087036,111.799744 1248.049683,111.831116 1249.012207,111.862488 C1250.069824,111.249535 1251.127319,110.636566 1252.455933,110.824341 C1252.925903,120.663231 1253.124756,129.701385 1253.242188,139.227753 C1253.125488,146.751404 1252.993164,153.788818 1253.135498,160.820679 C1253.164673,162.262833 1254.222290,163.684158 1254.839355,165.549377 C1254.968140,166.850632 1255.063354,167.717575 1255.158447,168.584518 C1255.158447,168.584518 1255.369873,168.536438 1255.409180,168.636230 C1241.566406,167.224457 1227.684326,165.712921 1213.227051,163.978378 C1212.102051,163.810379 1211.552124,163.865387 1211.002075,163.920410 C1204.050659,163.010239 1203.963013,163.011612 1204.069824,169.864838 C1204.310181,185.270157 1204.646240,200.673996 1204.755371,216.883728 C1204.718262,220.793289 1204.869141,223.897568 1205.020264,227.001846 C1205.051025,242.728027 1205.081787,258.454193 1204.692627,274.634094 C1203.475464,275.140381 1202.678467,275.192993 1201.881348,275.245605 C1187.678955,274.121582 1173.480957,272.937836 1159.271240,271.915283 C1155.694336,271.657928 1154.912720,269.669800 1154.920166,266.615601 C1154.944946,256.489899 1154.926880,246.363571 1154.829590,236.238403 C1154.805908,233.764282 1154.417236,231.293686 1154.319336,228.049835 C1154.279297,221.850739 1154.116089,216.423279 1153.952881,210.995804 C1153.647339,195.310440 1153.341675,179.625061 1153.215332,163.184479 C1152.988403,160.930130 1152.582275,159.430984 1152.176025,157.931854 C1152.176025,157.931854 1152.137573,157.870209 1151.977295,157.592361 C1151.161865,156.955597 1150.506836,156.596680 1149.851685,156.237762 C1131.690186,154.353409 1113.524170,152.511124 1095.368652,150.571304 C1081.007812,149.036926 1066.647949,147.481277 1052.313843,145.721207 C1048.067871,145.199829 1048.074341,147.591125 1048.133423,150.491806 C1048.451416,166.105469 1048.792725,181.718933 1049.018433,197.334045 C1049.098755,202.883774 1048.466675,203.144882 1042.868774,202.516525 C1036.272583,201.776077 1029.639648,201.364441 1022.434204,200.553925 C1020.898438,200.186325 1019.951172,200.075012 1019.003845,199.963715 C1016.931641,199.673126 1014.859436,199.382553 1012.176270,198.899261 C1010.712036,198.781342 1009.858826,198.856140 1009.005615,198.930939 C1006.935425,198.640106 1004.865234,198.349274 1002.126587,197.852982 C1000.593567,197.507431 999.729065,197.367340 998.864563,197.227249 C988.248962,196.420013 977.633362,195.612778 966.432190,194.549408 C964.898926,194.182312 963.951172,194.071350 963.003479,193.960388 C961.254150,193.691254 959.504761,193.422119 957.129150,192.927307 C955.337158,192.779175 954.171387,192.856689 953.005615,192.934204 z"/><path fill="#A2A2A2" opacity="1.000000" stroke="none" d=" M893.781189,1093.020386 C893.826965,1116.029907 893.872803,1139.039307 893.601624,1162.610718 C892.849670,1163.725952 892.414734,1164.279297 891.979736,1164.832642 C889.926636,1165.209839 887.873474,1165.587158 885.173706,1165.902100 C884.126709,1166.672119 883.246094,1168.110474 883.405396,1168.236816 C884.322754,1168.963623 885.487610,1169.816284 886.565918,1169.812744 C888.974365,1169.804932 891.381226,1169.317505 893.788757,1169.025513 C893.831970,1184.707886 893.875183,1200.390381 893.702148,1216.653076 C893.294861,1217.405396 893.130554,1217.600098 892.993042,1217.817505 C881.668213,1218.880615 870.343384,1219.943848 858.178101,1220.955566 C856.561707,1219.127930 855.146851,1217.363525 855.113770,1215.573608 C854.906067,1204.352051 855.071594,1193.124146 854.915710,1181.900879 C854.897827,1180.612671 853.654297,1179.341553 852.979126,1178.062500 C850.646484,1178.041138 848.313965,1178.019653 845.195068,1178.189575 C843.941650,1180.208862 843.107361,1182.029785 843.071472,1183.866211 C842.920227,1191.614868 843.134033,1199.370850 842.963989,1207.118652 C842.841553,1212.692505 842.323364,1218.257568 841.981689,1223.826538 C834.292175,1224.552612 826.591431,1225.179810 818.917908,1226.047363 C815.220337,1226.465454 811.573975,1227.336060 807.310669,1227.642578 C806.476379,1224.983398 806.028870,1222.683716 806.026123,1220.383423 C805.982300,1183.438110 806.008667,1146.492798 805.975159,1109.547485 C805.971619,1105.629883 805.424072,1101.604492 811.236206,1101.416260 C811.853577,1101.396118 812.426147,1099.989502 813.019531,1099.225952 C814.725891,1099.177490 816.432373,1099.129028 818.691040,1099.407349 C820.501953,1099.231445 821.760742,1098.728638 823.019470,1098.225952 C825.379150,1098.163452 827.738892,1098.100952 830.852295,1098.202148 C843.249817,1097.534668 854.898254,1096.757690 866.528503,1095.766846 C867.424622,1095.690430 868.192444,1094.108276 869.019958,1093.226074 C871.050964,1093.163452 873.082031,1093.100830 875.796021,1093.185303 C877.659119,1092.963745 878.839233,1092.594971 880.019409,1092.226318 C882.050842,1092.164185 884.082275,1092.102051 886.864014,1092.207520 C889.669983,1092.590210 891.725586,1092.805298 893.781189,1093.020386 M845.089355,1140.239258 C847.670410,1140.543091 850.251526,1140.846924 852.697510,1141.134888 C852.697510,1137.214600 852.697510,1134.190796 852.697510,1131.248047 C849.986877,1131.634521 847.635315,1131.969849 844.977173,1132.348755 C844.977173,1134.759766 844.977173,1137.035400 845.089355,1140.239258 z"/><path fill="#A2A2A2" opacity="1.000000" stroke="none" d=" M980.028076,1081.209839 C982.384705,1081.152710 984.741272,1081.095581 987.784790,1081.181396 C989.657104,1080.953491 990.842529,1080.582397 992.027954,1080.211182 C994.384338,1080.152710 996.740723,1080.094360 999.843384,1080.181519 C1006.656189,1080.227539 1012.722778,1080.127930 1018.789368,1080.028442 C1018.830811,1120.375366 1018.872314,1160.722412 1018.698730,1201.645996 C1018.289673,1202.389648 1018.125305,1202.582031 1017.990540,1202.799805 C1008.377502,1204.153076 998.778137,1205.618042 989.143738,1206.796997 C985.910828,1207.192627 982.588684,1206.859619 980.017944,1206.859619 C980.017944,1196.635620 980.076782,1186.774048 979.884827,1176.917236 C979.872131,1176.264404 977.950439,1175.648926 976.193237,1174.863281 C973.775085,1174.370850 971.619934,1172.504761 971.091064,1176.031006 C971.038879,1185.472168 970.869141,1194.915039 970.996765,1204.353760 C971.042786,1207.756470 969.954895,1208.793945 966.482117,1209.073364 C957.859619,1209.766724 949.287537,1211.082153 940.692566,1212.125244 C938.103943,1212.439575 935.506287,1212.679688 932.468933,1212.429077 C932.017578,1172.821289 931.947693,1133.738159 932.132874,1094.656006 C932.146179,1091.836304 934.019348,1089.025635 935.027832,1086.210693 C937.712830,1086.151855 940.397888,1086.092896 943.835083,1086.178345 C951.992126,1085.843140 959.406860,1085.468628 966.791687,1084.774902 C967.940613,1084.666992 968.952698,1083.102051 970.028137,1082.211060 C972.057983,1082.152344 974.087891,1082.093628 976.635376,1082.235352 C978.111389,1082.027222 979.069763,1081.618530 980.028076,1081.209839 M971.595703,1114.145020 C971.416504,1114.768677 971.237244,1115.392334 970.958374,1116.946533 C970.992676,1125.290649 971.026978,1133.634888 970.853210,1142.518921 C974.482727,1144.823486 977.044434,1144.649414 979.040649,1141.044678 C979.040649,1132.105103 979.040649,1123.165527 979.040649,1114.038574 C976.366333,1114.038574 974.227600,1114.038574 971.595703,1114.145020 z"/><path fill="#A1A1A1" opacity="1.000000" stroke="none" d=" M683.967651,1128.923462 C684.005798,1124.595703 684.043945,1120.268066 684.494629,1115.473877 C686.279236,1114.077759 687.651245,1113.148071 689.023315,1112.218384 C689.458801,1112.176147 689.894287,1112.133911 690.844849,1112.455566 C694.339966,1114.323486 697.257324,1115.527466 699.023560,1111.218872 C701.053162,1111.158813 703.082764,1111.098755 705.794067,1111.184204 C707.658142,1110.959351 708.840515,1110.589233 710.022949,1110.218994 C712.381226,1110.158081 714.739502,1110.097168 717.849670,1110.197144 C726.588623,1109.861328 734.582275,1109.442383 742.553345,1108.758545 C743.442810,1108.682251 744.203308,1107.102051 745.023560,1106.219116 C745.763794,1106.175415 746.503967,1106.131714 747.795410,1106.449951 C751.381409,1108.574585 754.125610,1108.937012 756.023315,1105.219238 C758.052795,1105.157715 760.082336,1105.096069 762.754211,1105.290527 C764.267273,1107.742554 765.770142,1109.905151 765.888794,1112.141235 C766.229614,1118.566162 766.016174,1125.020874 766.010010,1131.463867 C766.002869,1138.883057 765.494812,1139.419678 757.909302,1139.963623 C756.757324,1140.046265 755.449951,1139.694458 754.478027,1140.130737 C753.175903,1140.715332 752.130859,1141.872314 750.975464,1142.783447 C744.628479,1143.181396 738.281494,1143.579346 731.171753,1143.863281 C724.730835,1144.169556 719.045227,1144.515991 713.382935,1145.092041 C712.557007,1145.175903 711.842468,1146.354370 711.076294,1147.026489 C711.037720,1165.364258 710.999146,1183.702148 710.893799,1202.653076 C710.824524,1203.542480 710.821960,1203.818604 710.819336,1204.094849 C711.219421,1203.786011 711.619507,1203.477173 712.019653,1203.168335 C716.501953,1202.475708 720.962891,1201.545898 725.471008,1201.139648 C734.964844,1200.284180 744.483337,1199.703125 754.909790,1198.996094 C756.985046,1198.990234 758.142334,1198.999146 759.299622,1199.005249 C765.878723,1199.040039 765.979126,1199.127197 766.005066,1205.629395 C766.024841,1210.589233 766.060059,1215.550049 765.996033,1220.509277 C765.927612,1225.802856 767.673828,1231.964600 759.983154,1233.838745 C745.751221,1235.227173 731.502441,1236.465088 717.293335,1238.057495 C708.009949,1239.097900 698.788696,1240.684814 689.528442,1241.945312 C687.924438,1242.163818 686.265259,1241.976318 684.119568,1241.976318 C684.119568,1237.223145 684.119568,1232.808838 684.119568,1227.898926 C679.579590,1228.324585 675.590515,1228.698486 671.278442,1229.102661 C671.278442,1195.887939 671.278442,1163.165649 671.278442,1130.477173 C674.719910,1129.990845 677.931580,1129.536987 681.656616,1129.355469 C682.769226,1129.392944 683.368469,1129.158203 683.967651,1128.923462 z"/><path fill="#A2A2A2" opacity="1.000000" stroke="none" d=" M1094.066650,1151.020386 C1094.016113,1164.703491 1093.965576,1178.386475 1093.699829,1192.649658 C1093.292480,1193.402466 1093.127686,1193.598022 1092.990112,1193.816650 C1088.705200,1194.521362 1084.442261,1195.441772 1080.130127,1195.877808 C1074.443359,1196.452881 1068.718140,1196.647949 1062.132812,1197.017090 C1056.435669,1197.589355 1055.949585,1194.720337 1055.958008,1190.864746 C1056.038086,1154.229736 1056.086426,1117.593994 1055.912720,1080.959595 C1055.888672,1075.876831 1057.944946,1074.140259 1062.616333,1073.991211 C1068.090210,1073.816650 1073.573608,1073.494141 1079.008911,1072.859985 C1080.431519,1072.693970 1081.691406,1071.134766 1083.026001,1070.215454 C1085.055908,1070.168823 1087.085815,1070.122070 1089.656494,1070.369385 C1091.140015,1070.179688 1092.082520,1069.696045 1093.025146,1069.212402 C1095.382812,1069.153687 1097.740356,1069.095093 1100.785889,1069.180664 C1102.657471,1068.953735 1103.841064,1068.582397 1105.024780,1068.211060 C1107.382202,1068.151855 1109.739624,1068.092651 1112.843384,1068.180908 C1117.510132,1068.194702 1121.456177,1068.274170 1125.336792,1067.808838 C1126.651245,1067.651245 1127.800293,1066.115723 1129.025024,1065.209839 C1129.764282,1065.167847 1130.503662,1065.125732 1131.795410,1065.446655 C1137.725220,1066.846802 1138.461792,1070.486084 1138.098999,1075.229248 C1137.734741,1079.991699 1138.266602,1084.820923 1137.937378,1089.588501 C1137.693848,1093.115479 1136.698853,1096.590698 1136.038818,1100.088867 C1128.695190,1100.720825 1121.351685,1101.352661 1113.084595,1102.000244 C1106.720337,1102.353271 1101.263916,1102.545776 1095.850464,1103.133423 C1094.550781,1103.274414 1092.331665,1104.770630 1092.363403,1105.571289 C1092.474243,1108.371582 1089.976929,1111.900879 1094.031128,1113.912109 C1098.544556,1113.303589 1103.041870,1112.500366 1107.574707,1112.126587 C1117.400269,1111.316284 1127.244141,1110.725586 1137.534180,1110.569214 C1137.992188,1120.246094 1137.854492,1129.402222 1138.064331,1138.550293 C1138.159302,1142.691406 1136.571533,1143.935303 1132.520142,1144.100586 C1124.570557,1144.425049 1116.634155,1145.268677 1108.724121,1146.175415 C1107.394409,1146.328125 1106.224731,1147.876587 1104.981079,1148.780029 C1102.316406,1148.848022 1099.651855,1148.916138 1096.253174,1149.024170 C1095.035034,1149.716309 1094.550903,1150.368408 1094.066650,1151.020386 z"/><path fill="#A1A1A1" opacity="1.000000" stroke="none" d=" M1232.977417,1177.799561 C1220.838501,1179.233398 1208.699585,1180.667114 1196.083008,1182.157349 C1196.083008,1152.537476 1196.083008,1123.535645 1196.083008,1093.813965 C1189.034302,1094.549316 1182.453735,1095.235718 1175.348877,1095.464844 C1174.594360,1085.104492 1174.195312,1075.198242 1174.366821,1065.302002 C1174.386353,1064.176147 1177.539429,1062.968140 1179.364624,1062.045654 C1181.512329,1060.960205 1183.796509,1060.144531 1186.021484,1059.211914 C1186.762695,1059.167603 1187.504028,1059.123291 1188.786865,1059.434570 C1192.144775,1061.744751 1194.462646,1061.586548 1196.021362,1058.210938 C1198.378296,1058.149048 1200.735107,1058.087036 1203.713867,1058.114502 C1204.897461,1057.872070 1205.459106,1057.540161 1206.020752,1057.208252 C1208.379272,1057.149414 1210.737915,1057.090454 1213.786011,1057.176025 C1215.657471,1056.951416 1216.839478,1056.582275 1218.021362,1056.213257 C1219.076904,1056.154053 1220.132324,1056.094604 1221.917725,1056.203491 C1228.126099,1056.162720 1233.611084,1056.042480 1239.074951,1055.636108 C1239.780029,1055.583618 1240.375000,1054.051270 1241.020996,1053.204590 C1242.400635,1053.160645 1243.780273,1053.116577 1245.733643,1053.422607 C1248.899780,1055.755371 1250.793335,1055.192627 1252.020874,1052.203979 C1252.769043,1052.162231 1253.517212,1052.120605 1254.752441,1052.295044 C1255.412231,1052.701294 1255.606812,1052.865601 1255.823242,1053.003906 C1255.823242,1064.461304 1255.823242,1075.918701 1255.823242,1087.768555 C1249.092285,1088.181763 1242.548340,1088.583496 1235.200684,1089.181519 C1233.930054,1091.556519 1233.063965,1093.733643 1233.056030,1095.914062 C1232.957642,1123.208984 1232.983521,1150.504395 1232.977417,1177.799561 z"/><path fill="#8098B4" opacity="1.000000" stroke="none" d=" M1154.054077,609.032227 C1151.973267,609.684570 1149.897583,610.882874 1147.810669,610.902710 C1131.321289,611.060242 1114.829956,610.991760 1098.339111,610.995728 C1089.994385,610.997742 1089.990845,611.000549 1089.990967,619.586792 C1089.991333,670.891541 1089.994751,722.196350 1089.993774,773.501099 C1089.993530,781.986084 1089.978027,781.755493 1081.303589,782.041992 C1053.890137,782.947388 1026.478638,783.938293 999.075012,785.097778 C980.153442,785.898499 961.247009,787.055115 942.331604,788.007751 C934.531128,788.400696 926.720581,788.602783 918.922607,789.035156 C914.673889,789.270752 912.638733,787.582642 912.999268,783.233704 C913.095276,782.075806 913.008057,780.902893 913.008057,779.736877 C913.009277,638.815369 912.994690,497.893829 913.055176,356.972321 C913.058533,349.168457 913.638672,341.362335 914.079590,333.564575 C914.131042,332.654663 915.012329,331.791687 915.787170,331.008484 C916.046448,422.579071 916.022461,514.048096 916.010559,605.517151 C916.002930,663.831116 916.013184,722.145081 916.015503,780.459045 C916.015564,782.433716 916.015503,784.408325 916.015503,787.289246 C921.244873,786.830078 926.072693,786.170593 930.916016,786.024841 C945.837097,785.575745 960.765503,785.371460 975.688477,784.975281 C984.451660,784.742676 993.339905,785.159607 1001.943298,783.818176 C1019.656860,781.056519 1037.435669,781.251526 1055.234985,780.961304 C1063.498901,780.826599 1071.759888,780.389648 1080.015381,779.959106 C1082.243774,779.842957 1084.447266,779.249817 1086.908936,778.833862 C1086.908936,722.252869 1086.908936,665.978821 1086.908936,609.001709 C1096.120239,609.001709 1105.041992,609.001709 1114.900879,608.988403 C1128.576538,608.994141 1141.315308,609.013184 1154.054077,609.032227 z"/><path fill="#AA7988" opacity="1.000000" stroke="none" d=" M25.109917,532.505493 C25.438551,534.665283 25.942499,537.287415 25.943424,539.909729 C25.997431,693.140320 26.009453,846.370911 26.030197,999.601501 C26.030468,1001.599243 25.633738,1003.756104 26.258265,1005.547302 C26.818325,1007.153748 28.395864,1009.398499 29.758848,1009.577515 C42.687935,1011.275391 55.670406,1012.563110 68.626938,1014.060486 C70.010956,1014.220459 71.327652,1014.962952 72.855927,1015.774170 C67.078255,1015.740845 61.087730,1015.640503 55.169739,1014.933228 C45.985477,1013.835571 36.837669,1012.402100 27.712772,1010.880920 C26.683054,1010.709229 25.735062,1009.152405 25.069342,1008.045288 C24.700590,1007.432007 24.992441,1006.419434 24.992540,1005.586792 C25.011501,848.047180 25.031015,690.507507 25.109917,532.505493 z"/><path fill="#8199B5" opacity="1.000000" stroke="none" d=" M665.087646,519.484985 C665.432434,521.139771 665.964233,523.258667 665.964722,525.377625 C666.005127,706.685120 666.006042,887.992676 665.986145,1069.300171 C665.985962,1071.280151 665.676575,1073.260132 665.326172,1075.605469 C665.093201,1074.974243 665.004089,1073.977661 665.004089,1072.981201 C665.007507,888.637146 665.017151,704.293091 665.087646,519.484985 z"/><path fill="#829AB5" opacity="1.000000" stroke="none" d=" M1223.073975,349.388153 C1231.649658,349.320221 1240.451172,349.531860 1249.245361,349.913666 C1252.300049,350.046265 1254.101196,349.187988 1253.980835,345.822662 C1253.927246,344.326630 1253.989380,342.826630 1253.989380,341.328430 C1253.988770,286.725372 1253.971802,232.122284 1254.036377,177.519302 C1254.039185,175.114273 1254.786743,172.710129 1255.522583,169.992767 C1255.907227,189.994873 1255.987915,210.309784 1255.999268,230.624725 C1256.021729,270.758301 1256.005859,310.891876 1256.005859,352.507721 C1244.986206,351.573425 1234.141602,350.653992 1223.073975,349.388153 z"/><path fill="#7992AD" opacity="1.000000" stroke="none" d=" M1148.048706,99.167816 C1146.968628,99.364891 1145.888672,99.561966 1144.321289,99.497398 C1143.161133,98.912979 1142.488403,98.590218 1141.815674,98.267456 C1139.828613,98.200325 1137.841675,98.133209 1135.192749,97.865005 C1133.960083,97.529099 1133.389282,97.394279 1132.818481,97.259460 C1115.966675,95.412750 1099.104858,93.652832 1082.265747,91.697487 C1060.962769,89.223801 1039.676636,86.603363 1018.386108,84.022972 C1001.880920,82.022552 985.379944,79.986473 968.444702,77.642426 C968.010986,76.931885 968.009766,76.545181 968.008606,76.158478 C974.715881,77.083549 981.416992,78.056938 988.132935,78.914154 C991.708984,79.370605 995.308655,79.649643 998.901245,79.967903 C1010.333679,80.980659 1021.797729,81.717896 1033.192871,83.047501 C1044.534180,84.370819 1055.784790,86.457626 1067.115845,87.887115 C1079.441772,89.442108 1091.834717,90.464844 1104.160767,92.018608 C1115.475220,93.444839 1126.734741,95.303986 1138.029297,96.894753 C1141.087158,97.325447 1144.184692,97.474609 1147.643799,98.207581 C1148.031982,98.830727 1148.040405,98.999275 1148.048706,99.167816 z"/><path fill="#929292" opacity="1.000000" stroke="none" d=" M1082.603516,1070.132324 C1081.691406,1071.134766 1080.431519,1072.693970 1079.008911,1072.859985 C1073.573608,1073.494141 1068.090210,1073.816650 1062.616333,1073.991211 C1057.944946,1074.140259 1055.888672,1075.876831 1055.912720,1080.959595 C1056.086426,1117.593994 1056.038086,1154.229736 1055.958008,1190.864746 C1055.949585,1194.720337 1056.435669,1197.589355 1061.687134,1197.040771 C1059.917969,1197.624512 1057.720825,1198.504395 1055.515381,1198.525879 C1055.027832,1198.530762 1054.074585,1195.499023 1054.071045,1193.863770 C1053.988403,1155.423584 1054.061523,1116.983154 1053.939575,1078.543213 C1053.923828,1073.603394 1056.593140,1072.355469 1060.639771,1072.002563 C1067.822388,1071.376465 1075.000977,1070.703003 1082.603516,1070.132324 z"/><path fill="#969697" opacity="1.000000" stroke="none" d=" M812.598938,1099.142578 C812.426147,1099.989502 811.853577,1101.396118 811.236206,1101.416260 C805.424072,1101.604492 805.971619,1105.629883 805.975159,1109.547485 C806.008667,1146.492798 805.982300,1183.438110 806.026123,1220.383423 C806.028870,1222.683716 806.476379,1224.983398 806.870850,1227.675537 C806.043457,1227.990112 804.668152,1228.268555 804.188660,1227.737915 C803.680054,1227.175049 803.996460,1225.843628 803.996399,1224.847900 C803.993713,1184.299194 803.995544,1143.750488 804.002380,1103.201782 C804.002563,1102.381958 804.071228,1101.562134 804.129272,1100.266235 C806.824768,1099.862061 809.501526,1099.460693 812.598938,1099.142578 z"/><path fill="#909090" opacity="1.000000" stroke="none" d=" M934.643433,1086.134766 C934.019348,1089.025635 932.146179,1091.836304 932.132874,1094.656006 C931.947693,1133.738159 932.017578,1172.821289 932.025757,1212.361328 C931.352356,1211.515991 930.092529,1210.215088 930.089111,1208.910767 C929.984802,1169.615845 930.041138,1130.320679 929.938110,1091.025757 C929.929443,1087.716553 931.804199,1086.826416 934.643433,1086.134766 z"/><path fill="#8199B5" opacity="1.000000" stroke="none" d=" M1255.920166,715.534302 C1255.243408,713.903320 1254.099731,711.809082 1254.089478,709.709351 C1253.927246,676.253540 1253.909912,642.796936 1253.864990,608.738770 C1257.487549,607.675598 1255.919189,610.493835 1255.933228,611.815674 C1256.058716,623.619507 1256.007812,635.425293 1256.004517,647.230469 C1255.998047,669.843201 1255.988647,692.455872 1255.920166,715.534302 z"/><path fill="#738BA6" opacity="1.000000" stroke="none" d=" M835.920776,60.491833 C832.558960,60.848343 828.949646,61.217003 825.427551,60.817219 C799.717590,57.898914 774.020447,54.865387 748.333191,51.753632 C745.059875,51.357105 741.866882,50.297611 738.344971,49.323433 C747.614380,50.023918 757.174988,50.952267 766.737061,51.865143 C769.988098,52.175507 773.252319,52.367001 776.494080,52.751484 C785.156494,53.778889 793.798401,54.988750 802.470032,55.926758 C813.013062,57.067188 823.579529,57.989128 834.129456,59.069210 C834.688477,59.126446 835.186890,59.774956 835.920776,60.491833 z"/><path fill="#8098B4" opacity="1.000000" stroke="none" d=" M1122.171387,343.472229 C1128.873657,343.120972 1135.822754,342.894196 1142.752808,343.161346 C1154.356445,343.608643 1165.945557,344.415619 1177.545044,344.985901 C1186.166748,345.409729 1194.810791,345.493805 1203.412720,346.149139 C1206.801636,346.407288 1210.103638,347.806030 1213.766357,348.908844 C1211.469360,349.091064 1208.847778,349.120667 1206.233643,348.994232 C1200.307373,348.707581 1194.381226,348.399078 1188.461670,347.998993 C1179.277222,347.378235 1170.103027,346.600647 1160.915894,346.028198 C1153.664185,345.576324 1146.396851,345.384125 1139.141602,344.980957 C1133.560059,344.670776 1127.986694,344.211609 1122.171387,343.472229 z"/><path fill="#939394" opacity="1.000000" stroke="none" d=" M1233.375000,1177.725342 C1232.983521,1150.504395 1232.957642,1123.208984 1233.056030,1095.914062 C1233.063965,1093.733643 1233.930054,1091.556519 1234.747559,1089.209717 C1235.064819,1116.735962 1235.055054,1144.430420 1234.946533,1172.124268 C1234.939331,1173.968018 1234.181274,1175.808838 1233.375000,1177.725342 z"/><path fill="#8098B4" opacity="1.000000" stroke="none" d=" M1041.047363,338.394043 C1060.708130,338.709717 1080.560303,339.250854 1100.396484,340.145844 C1104.757935,340.342590 1109.062744,341.796448 1113.735107,342.896973 C1110.146118,342.966187 1106.213257,342.851868 1102.285767,342.638092 C1099.833008,342.504547 1097.390991,342.181549 1094.939453,342.012970 C1089.999512,341.673340 1085.059937,341.274628 1080.113159,341.099976 C1075.442017,340.935059 1070.758179,341.133545 1066.086304,340.980011 C1058.815918,340.741089 1051.548340,340.383759 1044.286621,339.957184 C1043.248535,339.896179 1042.249878,339.166779 1041.047363,338.394043 z"/><path fill="#969697" opacity="1.000000" stroke="none" d=" M1105.399170,1148.845215 C1106.224731,1147.876587 1107.394409,1146.328125 1108.724121,1146.175415 C1116.634155,1145.268677 1124.570557,1144.425049 1132.520142,1144.100586 C1136.571533,1143.935303 1138.159302,1142.691406 1138.064331,1138.550293 C1137.854492,1129.402222 1137.992188,1120.246094 1137.985840,1110.635986 C1138.655518,1110.963501 1139.901611,1111.740601 1139.912231,1112.534424 C1140.044556,1122.472534 1139.935913,1132.413696 1140.031738,1142.352661 C1140.064087,1145.703247 1138.143555,1145.879150 1135.536255,1146.036499 C1126.543335,1146.579224 1117.562500,1147.327759 1108.581909,1148.058716 C1107.643555,1148.135132 1106.738159,1148.616943 1105.399170,1148.845215 z"/><path fill="#7A95B2" opacity="1.000000" stroke="none" d=" M668.719604,134.174850 C668.718506,136.151245 668.717407,138.127655 668.635986,140.521423 C667.651306,140.958115 666.746887,140.977432 665.496094,140.997162 C665.104309,123.982307 665.058960,106.967049 665.391602,89.464653 C666.211548,88.971703 666.653564,88.965881 667.095581,88.960060 C667.364563,100.994530 667.633484,113.028999 667.722900,125.864594 C667.935486,129.168762 668.327576,131.671799 668.719604,134.174850 z"/><path fill="#939394" opacity="1.000000" stroke="none" d=" M751.384888,1142.711182 C752.130859,1141.872314 753.175903,1140.715332 754.478027,1140.130737 C755.449951,1139.694458 756.757324,1140.046265 757.909302,1139.963623 C765.494812,1139.419678 766.002869,1138.883057 766.010010,1131.463867 C766.016174,1125.020874 766.229614,1118.566162 765.888794,1112.141235 C765.770142,1109.905151 764.267273,1107.742554 763.187134,1105.241211 C764.457336,1104.545654 765.937073,1104.155396 767.756836,1103.675415 C767.756836,1116.306396 767.756836,1128.357300 767.756836,1140.824585 C762.387817,1141.434814 757.091064,1142.036865 751.384888,1142.711182 z"/><path fill="#AA7886" opacity="1.000000" stroke="none" d=" M422.160095,1063.437500 C426.212158,1063.321411 430.509674,1063.326782 434.754974,1063.800415 C443.104004,1064.731934 451.437592,1065.830322 459.751587,1067.038330 C466.060272,1067.955078 472.328766,1069.148438 478.800110,1070.525879 C466.847931,1069.508057 454.698883,1068.281372 442.578156,1066.819824 C435.821747,1066.005371 429.112457,1064.799805 422.160095,1063.437500 z"/><path fill="#949494" opacity="1.000000" stroke="none" d=" M760.393555,1233.912231 C767.673828,1231.964600 765.927612,1225.802856 765.996033,1220.509277 C766.060059,1215.550049 766.024841,1210.589233 766.005066,1205.629395 C765.979126,1199.127197 765.878723,1199.040039 759.299622,1199.005249 C758.142334,1198.999146 756.985046,1198.990234 755.362793,1198.969360 C756.628967,1198.304688 758.343079,1197.147583 760.094238,1197.088501 C767.987183,1196.822021 767.990906,1196.934204 767.990784,1204.965942 C767.990662,1212.277222 767.995544,1219.588623 767.989197,1226.899902 C767.983887,1233.064575 767.283142,1233.749878 760.393555,1233.912231 z"/><path fill="#949494" opacity="1.000000" stroke="none" d=" M1185.596191,1059.128662 C1183.796509,1060.144531 1181.512329,1060.960205 1179.364624,1062.045654 C1177.539429,1062.968140 1174.386353,1064.176147 1174.366821,1065.302002 C1174.195312,1075.198242 1174.594360,1085.104492 1174.922729,1095.401123 C1174.016968,1095.023560 1172.155884,1094.270264 1172.139648,1093.479004 C1171.939575,1083.720093 1171.870483,1073.951416 1172.162109,1064.197144 C1172.204468,1062.781616 1174.077393,1060.616821 1175.504150,1060.212036 C1178.588379,1059.337036 1181.932739,1059.378784 1185.596191,1059.128662 z"/><path fill="#909090" opacity="1.000000" stroke="none" d=" M852.987793,1178.527100 C853.654297,1179.341553 854.897827,1180.612671 854.915710,1181.900879 C855.071594,1193.124146 854.906067,1204.352051 855.113770,1215.573608 C855.146851,1217.363525 856.561707,1219.127930 857.729248,1220.979736 C857.057312,1221.674072 855.993774,1222.292603 854.930237,1222.911255 C854.288086,1221.725464 853.115662,1220.551025 853.089783,1219.351929 C852.921021,1211.548828 853.001404,1203.740479 853.000000,1195.933838 C852.998962,1190.286499 852.997559,1184.639038 852.987793,1178.527100 z"/><path fill="#969697" opacity="1.000000" stroke="none" d=" M868.589600,1093.142334 C868.192444,1094.108276 867.424622,1095.690430 866.528503,1095.766846 C854.898254,1096.757690 843.249817,1097.534668 831.292969,1098.158691 C831.525635,1097.319214 832.022766,1096.187988 832.624329,1096.129517 C840.736572,1095.340332 848.863708,1094.703979 856.986450,1094.022217 C860.711365,1093.709717 864.434998,1093.380493 868.589600,1093.142334 z"/><path fill="#949494" opacity="1.000000" stroke="none" d=" M842.415161,1223.895508 C842.323364,1218.257568 842.841553,1212.692505 842.963989,1207.118652 C843.134033,1199.370850 842.920227,1191.614868 843.071472,1183.866211 C843.107361,1182.029785 843.941650,1180.208862 844.759277,1178.214111 C845.069641,1192.069702 845.085022,1206.093018 844.896484,1220.113525 C844.879089,1221.406006 843.562073,1222.681274 842.415161,1223.895508 z"/><path fill="#AA7886" opacity="1.000000" stroke="none" d=" M126.096344,1023.380920 C140.026566,1024.429565 154.183594,1025.754883 168.318085,1027.287842 C170.386902,1027.512329 172.348373,1028.726318 174.667938,1029.664917 C167.007614,1029.209839 159.002563,1028.859253 151.080154,1027.855957 C142.784042,1026.805298 134.567307,1025.128052 126.096344,1023.380920 z"/><path fill="#929292" opacity="1.000000" stroke="none" d=" M1136.476074,1100.061157 C1136.698853,1096.590698 1137.693848,1093.115479 1137.937378,1089.588501 C1138.266602,1084.820923 1137.734741,1079.991699 1138.098999,1075.229248 C1138.461792,1070.486084 1137.725220,1066.846802 1132.161621,1065.508301 C1140.019287,1064.275513 1140.020020,1064.275513 1140.019653,1072.725586 C1140.019409,1080.670898 1139.952271,1088.617188 1140.056396,1096.561157 C1140.087158,1098.906738 1139.747803,1100.485107 1136.476074,1100.061157 z"/><path fill="#AA7886" opacity="1.000000" stroke="none" d=" M526.084290,1077.373779 C539.397705,1078.466187 552.919434,1079.887329 566.436157,1081.354492 C566.855286,1081.400146 567.222961,1081.920044 567.804626,1082.528442 C554.093689,1081.128662 540.192810,1079.419189 526.084290,1077.373779 z"/><path fill="#829AB5" opacity="1.000000" stroke="none" d=" M1253.323730,138.739532 C1253.124756,129.701385 1252.925903,120.663231 1252.677734,111.135071 C1256.134521,109.219597 1256.005127,111.636024 1256.005615,113.864204 C1256.007324,121.926277 1255.992554,129.988342 1255.611328,138.524628 C1254.600342,138.912415 1253.962036,138.825974 1253.323730,138.739532 z"/><path fill="#738BA6" opacity="1.000000" stroke="none" d=" M735.054565,48.437119 C729.369202,48.548775 723.595947,48.497097 717.886108,47.869347 C710.708130,47.080181 703.581909,45.819569 696.241577,44.457752 C706.401428,45.083103 716.755310,45.989105 727.103027,46.959694 C729.743530,47.207359 732.364807,47.659721 735.054565,48.437119 z"/><path fill="#829AB5" opacity="1.000000" stroke="none" d=" M1231.869507,109.259499 C1230.192017,109.194748 1228.514648,109.129997 1226.239624,108.910767 C1225.096313,108.856026 1224.550415,108.955772 1224.004639,109.055527 C1218.966919,108.348946 1213.929321,107.642357 1208.177856,106.715164 C1205.311035,106.000496 1203.157959,105.506447 1201.003906,104.799126 C1201.002808,104.585846 1201.001953,104.159309 1201.001953,104.159309 C1209.136719,104.781204 1217.291138,105.218498 1225.400146,106.082764 C1232.015503,106.787865 1238.592041,107.914017 1245.150513,109.055923 C1246.768799,109.337700 1248.250122,110.406784 1249.403320,111.488213 C1248.049683,111.831116 1247.087036,111.799744 1245.451172,111.477585 C1243.472168,110.890671 1242.166504,110.594528 1240.860962,110.298393 C1239.507324,110.251320 1238.153687,110.204231 1236.106934,109.930099 C1234.232422,109.555214 1233.050903,109.407356 1231.869507,109.259499 z"/><path fill="#8098B4" opacity="1.000000" stroke="none" d=" M1150.891724,99.333618 C1150.882324,99.118668 1150.872803,98.903717 1150.937012,98.374611 C1159.141235,98.714409 1167.292725,99.179405 1175.395752,100.079201 C1182.494385,100.867462 1189.538940,102.143990 1196.818359,103.589577 C1197.029419,103.974319 1196.983276,104.026962 1196.556519,104.044312 C1194.704834,104.143738 1193.280029,104.225815 1191.855103,104.307884 C1189.856567,104.225380 1187.858032,104.142883 1185.161133,103.847977 C1183.597656,103.504311 1182.732300,103.373055 1181.867065,103.241791 C1173.569458,102.455048 1165.271729,101.668304 1156.345215,100.574593 C1154.108154,99.956284 1152.500000,99.644951 1150.891724,99.333618 z"/><path fill="#AA7886" opacity="1.000000" stroke="none" d=" M226.078430,1036.369019 C238.705933,1037.857788 251.520706,1039.675171 264.655579,1041.669922 C255.774857,1040.960327 246.558487,1040.205322 237.380829,1039.122437 C233.632599,1038.680054 229.968216,1037.527222 226.078430,1036.369019 z"/><path fill="#A1707E" opacity="1.000000" stroke="none" d=" M425.892273,62.613556 C413.347351,64.323677 400.581451,65.673439 387.348877,66.998260 C387.743805,66.310432 388.556427,65.153152 389.474854,65.062035 C397.622711,64.253647 405.787201,63.606819 413.951324,62.970604 C417.852905,62.666561 421.764343,62.488384 425.892273,62.613556 z"/><path fill="#8199B5" opacity="1.000000" stroke="none" d=" M1255.914673,796.531860 C1255.251953,795.908386 1254.137329,794.824402 1254.126587,793.729675 C1254.018188,782.667725 1254.070190,771.603882 1254.159058,760.541199 C1254.164795,759.825500 1254.846680,759.115112 1255.535645,758.201355 C1255.896606,770.689087 1255.935913,783.377808 1255.914673,796.531860 z"/><path fill="#AA7886" opacity="1.000000" stroke="none" d=" M323.956604,1049.437256 C332.303589,1050.245972 340.710083,1051.471924 349.123688,1052.647217 C353.834351,1053.305176 358.556763,1053.879028 363.620483,1054.666748 C354.012817,1053.927246 344.046539,1053.121948 334.110931,1052.035645 C330.707428,1051.663330 327.380768,1050.587646 323.956604,1049.437256 z"/><path fill="#738BA6" opacity="1.000000" stroke="none" d=" M918.998230,71.883942 C908.075134,70.519768 897.152100,69.155609 886.328491,67.431213 C886.654297,67.035461 886.880737,66.999924 887.107117,66.964386 C897.138977,67.975922 907.170776,68.987465 917.740112,70.301147 C918.517761,71.030167 918.757996,71.457054 918.998230,71.883942 z"/><path fill="#738BA6" opacity="1.000000" stroke="none" d=" M869.998901,65.894836 C859.452087,64.506790 848.905334,63.118744 838.192017,61.408905 C848.078735,62.064621 858.132019,63.042126 868.728271,64.308578 C869.513855,65.029961 869.756348,65.462395 869.998901,65.894836 z"/><path fill="#68809A" opacity="1.000000" stroke="none" d=" M1253.242188,139.227753 C1253.962036,138.825974 1254.600342,138.912415 1255.564209,138.990021 C1255.940308,144.027618 1255.990601,149.074036 1255.763672,154.932037 C1255.259644,158.867432 1255.032837,161.991241 1254.805908,165.115051 C1254.222290,163.684158 1253.164673,162.262833 1253.135498,160.820679 C1252.993164,153.788818 1253.125488,146.751404 1253.242188,139.227753 z"/><path fill="#738BA6" opacity="1.000000" stroke="none" d=" M967.552124,76.094833 C968.009766,76.545181 968.010986,76.931885 968.017456,77.607399 C957.097290,76.522957 946.171814,75.149704 935.337280,73.420273 C935.649109,73.033104 935.869873,73.002129 936.090576,72.971161 C942.282959,73.301582 948.490784,73.461807 954.662354,74.021759 C958.833191,74.400192 962.953003,75.341606 967.552124,76.094833 z"/><path fill="#939394" opacity="1.000000" stroke="none" d=" M744.593140,1106.134521 C744.203308,1107.102051 743.442810,1108.682251 742.553345,1108.758545 C734.582275,1109.442383 726.588623,1109.861328 718.289673,1110.149780 C718.850281,1109.304443 719.675415,1108.197388 720.602600,1108.104126 C728.445312,1107.314575 736.306824,1106.710083 744.593140,1106.134521 z"/><path fill="#949494" opacity="1.000000" stroke="none" d=" M1094.016602,1113.461914 C1089.976929,1111.900879 1092.474243,1108.371582 1092.363403,1105.571289 C1092.331665,1104.770630 1094.550781,1103.274414 1095.850464,1103.133423 C1101.263916,1102.545776 1106.720337,1102.353271 1112.629150,1102.028809 C1112.198853,1102.690063 1111.350952,1103.805786 1110.393555,1103.909302 C1105.169434,1104.473755 1099.918335,1104.789185 1094.001953,1105.241821 C1094.001953,1107.828979 1094.001953,1110.420288 1094.016602,1113.461914 z"/><path fill="#909090" opacity="1.000000" stroke="none" d=" M969.605713,1082.126953 C968.952698,1083.102051 967.940613,1084.666992 966.791687,1084.774902 C959.406860,1085.468628 951.992126,1085.843140 944.280090,1086.126709 C944.861084,1085.289673 945.707703,1084.166870 946.644226,1084.085938 C952.391663,1083.590210 958.162964,1083.379150 963.918335,1082.962524 C965.686279,1082.834595 967.429077,1082.359131 969.605713,1082.126953 z"/><path fill="#7A95B2" opacity="1.000000" stroke="none" d=" M674.852051,40.528076 C674.517395,41.156288 673.954102,41.583099 673.332581,41.699570 C666.106567,43.053814 666.072632,43.041576 666.109375,50.379841 C666.155701,59.617630 666.260193,68.855125 666.052612,78.553375 C665.546814,79.002274 665.328003,78.990524 665.109131,78.978775 C665.109131,66.180397 665.109131,53.382023 665.109131,40.182507 C668.407410,40.182507 671.501892,40.182507 674.852051,40.528076 z"/><path fill="#AA7988" opacity="1.000000" stroke="none" d=" M524.887634,52.615955 C518.224915,53.993397 511.340240,55.108059 504.425781,55.988518 C502.002563,56.297073 499.506042,56.029881 496.586884,55.999146 C496.199310,55.821396 496.250092,55.549103 496.338989,55.536015 C504.456909,54.341553 512.572876,53.131100 520.703369,52.027958 C521.986084,51.853916 523.335388,52.171017 524.887634,52.615955 z"/><path fill="#8199B5" opacity="1.000000" stroke="none" d=" M1154.508057,609.031311 C1141.315308,609.013184 1128.576538,608.994141 1115.361816,608.966675 C1116.397583,608.631958 1117.907959,608.028076 1119.420776,608.022156 C1134.968262,607.961060 1150.516235,607.996948 1166.530029,608.064819 C1162.984619,608.425964 1158.973267,608.728210 1154.508057,609.031311 z"/><path fill="#909090" opacity="1.000000" stroke="none" d=" M1018.860718,1079.630615 C1012.722778,1080.127930 1006.656189,1080.227539 1000.282410,1080.129150 C1000.380127,1079.426270 1000.742554,1078.525391 1001.196533,1078.476562 C1006.353455,1077.922607 1011.519836,1077.408569 1016.697021,1077.145996 C1017.404907,1077.109985 1018.185181,1078.501953 1018.860718,1079.630615 z"/><path fill="#AA7482" opacity="1.000000" stroke="none" d=" M594.958557,47.955124 C587.895264,48.317062 580.831909,48.679008 573.293457,49.006866 C573.851379,48.312366 574.843750,47.162811 575.924377,47.072685 C581.940186,46.570942 587.977478,46.326057 594.751465,46.003502 C595.690308,46.029518 595.885010,46.045357 595.937256,46.296627 C595.516113,47.006416 595.237366,47.480770 594.958557,47.955124 z"/><path fill="#929292" opacity="1.000000" stroke="none" d=" M711.521240,1147.019043 C711.842468,1146.354370 712.557007,1145.175903 713.382935,1145.092041 C719.045227,1144.515991 724.730835,1144.169556 730.719116,1143.914551 C730.172058,1144.712524 729.357910,1145.817749 728.450439,1145.900635 C722.967529,1146.400757 717.463257,1146.667114 711.521240,1147.019043 z"/><path fill="#949494" opacity="1.000000" stroke="none" d=" M1240.598999,1053.124146 C1240.375000,1054.051270 1239.780029,1055.583618 1239.074951,1055.636108 C1233.611084,1056.042480 1228.126099,1056.162720 1222.311768,1056.153687 C1225.020264,1055.291260 1228.045288,1054.526123 1231.114502,1054.036865 C1234.111938,1053.559204 1237.154297,1053.363281 1240.598999,1053.124146 z"/><path fill="#AA7B89" opacity="1.000000" stroke="none" d=" M596.079651,46.061192 C595.885010,46.045357 595.690308,46.029518 595.203491,45.991257 C598.980591,45.332695 603.029907,44.446873 607.123901,44.118912 C613.277039,43.625996 619.461426,43.523808 625.453979,43.624626 C623.529114,44.369850 621.782776,44.745937 620.036499,45.122025 C617.671875,45.136887 615.307190,45.151749 612.146606,45.152725 C610.173645,45.700977 608.996521,46.263119 607.819458,46.825256 C605.502258,46.633755 603.185120,46.442261 600.072571,46.209152 C598.211365,46.132092 597.145508,46.096642 596.079651,46.061192 z"/><path fill="#929292" opacity="1.000000" stroke="none" d=" M1128.599854,1065.125244 C1127.800293,1066.115723 1126.651245,1067.651245 1125.336792,1067.808838 C1121.456177,1068.274170 1117.510132,1068.194702 1113.282959,1068.131714 C1114.000854,1067.294800 1114.971191,1066.229980 1116.060059,1066.090210 C1120.076904,1065.574585 1124.133179,1065.365234 1128.599854,1065.125244 z"/><path fill="#7A95B2" opacity="1.000000" stroke="none" d=" M936.033691,72.545425 C935.869873,73.002129 935.649109,73.033104 935.097900,73.126762 C929.797974,72.779655 924.828369,72.369865 919.428467,71.922005 C918.757996,71.457054 918.517761,71.030167 918.158691,70.387878 C924.018860,70.821533 929.997803,71.470612 936.033691,72.545425 z"/><path fill="#7A95B2" opacity="1.000000" stroke="none" d=" M870.423279,65.935745 C869.756348,65.462395 869.513855,65.029961 869.154053,64.378067 C874.940247,64.849937 880.843811,65.541260 886.927246,66.598480 C886.880737,66.999924 886.654297,67.035461 886.089478,67.141022 C880.783203,66.799583 875.815430,66.388123 870.423279,65.935745 z"/><path fill="#AA7886" opacity="1.000000" stroke="none" d=" M364.935699,1055.449341 C370.435608,1055.758789 376.024628,1056.487793 381.797760,1057.524902 C376.329529,1057.178223 370.677155,1056.523560 364.935699,1055.449341 z"/><path fill="#667E97" opacity="1.000000" stroke="none" d=" M665.031616,79.429428 C665.328003,78.990524 665.546814,79.002274 666.097290,79.021515 C666.773987,82.111557 667.118896,85.194107 667.279663,88.618362 C666.653564,88.965881 666.211548,88.971703 665.439331,88.999496 C665.057495,85.974335 665.005798,82.927208 665.031616,79.429428 z"/><path fill="#929292" opacity="1.000000" stroke="none" d=" M893.851990,1168.620850 C891.381226,1169.317505 888.974365,1169.804932 886.565918,1169.812744 C885.487610,1169.816284 884.322754,1168.963623 883.405396,1168.236816 C883.246094,1168.110474 884.126709,1166.672119 884.776978,1165.953735 C885.026978,1166.721191 885.026978,1167.374756 885.026978,1167.367920 C888.107422,1167.661987 891.011353,1167.939209 893.851990,1168.620850 z"/><path fill="#8199B5" opacity="1.000000" stroke="none" d=" M1206.832764,607.517212 C1203.264893,608.245728 1199.442505,608.629883 1195.284180,608.613647 C1198.824707,607.866455 1202.701538,607.519653 1206.832764,607.517212 z"/><path fill="#8199B5" opacity="1.000000" stroke="none" d=" M665.104004,1078.424438 C668.823242,1078.003052 672.506287,1078.008789 676.655457,1078.026489 C673.317322,1081.477905 669.205505,1080.356567 665.104004,1078.424438 z"/><path fill="#939394" opacity="1.000000" stroke="none" d=" M698.617065,1111.134521 C697.257324,1115.527466 694.339966,1114.323486 691.168518,1112.517700 C693.388306,1111.827515 695.799438,1111.438843 698.617065,1111.134521 z"/><path fill="#939394" opacity="1.000000" stroke="none" d=" M755.613037,1105.134888 C754.125610,1108.937012 751.381409,1108.574585 748.161987,1106.513428 C750.385864,1105.826782 752.794312,1105.438721 755.613037,1105.134888 z"/><path fill="#969697" opacity="1.000000" stroke="none" d=" M893.742310,1092.656006 C891.725586,1092.805298 889.669983,1092.590210 887.297974,1092.163696 C889.385498,1088.829102 891.619141,1089.080200 893.742310,1092.656006 z"/><path fill="#949494" opacity="1.000000" stroke="none" d=" M1195.625244,1058.128418 C1194.462646,1061.586548 1192.144775,1061.744751 1189.154053,1059.497437 C1191.062866,1058.818359 1193.145996,1058.432129 1195.625244,1058.128418 z"/><path fill="#949494" opacity="1.000000" stroke="none" d=" M1251.634888,1052.122070 C1250.793335,1055.192627 1248.899780,1055.755371 1246.143799,1053.484863 C1247.736450,1052.811401 1249.492676,1052.425781 1251.634888,1052.122070 z"/><path fill="#915F6B" opacity="1.000000" stroke="none" d=" M620.365601,45.298969 C621.782776,44.745937 623.529114,44.369850 625.677124,43.989067 C626.364014,44.454678 626.649048,44.924980 626.890442,45.694382 C624.796082,45.820953 622.745361,45.648434 620.365601,45.298969 z"/><path fill="#939394" opacity="1.000000" stroke="none" d=" M688.640930,1112.134521 C687.651245,1113.148071 686.279236,1114.077759 684.558167,1115.015137 C683.897888,1111.769165 686.133362,1111.984863 688.640930,1112.134521 z"/><path fill="#829AB5" opacity="1.000000" stroke="none" d=" M1254.839355,165.549377 C1255.032837,161.991241 1255.259644,158.867432 1255.682617,155.395905 C1255.867432,159.357300 1255.855835,163.666382 1255.501465,168.279999 C1255.063354,167.717575 1254.968140,166.850632 1254.839355,165.549377 z"/><path fill="#8098B4" opacity="1.000000" stroke="none" d=" M1022.089966,337.386841 C1025.041992,337.249756 1028.213501,337.459839 1031.730225,337.895844 C1028.820190,337.992554 1025.564819,337.863281 1022.089966,337.386841 z"/><path fill="#909090" opacity="1.000000" stroke="none" d=" M971.473633,1176.025635 C971.619934,1172.504761 973.775085,1174.370850 975.755859,1174.912720 C974.646606,1175.416748 973.251343,1175.718506 971.473633,1176.025635 z"/><path fill="#969697" opacity="1.000000" stroke="none" d=" M822.662598,1098.143433 C821.760742,1098.728638 820.501953,1099.231445 819.113586,1099.471680 C820.091248,1098.826416 821.198486,1098.443604 822.662598,1098.143433 z"/><path fill="#AA7886" opacity="1.000000" stroke="none" d=" M266.081909,1042.380371 C268.638428,1042.182495 271.439484,1042.334229 274.597290,1042.661133 C272.078186,1042.800903 269.202271,1042.765503 266.081909,1042.380371 z"/><path fill="#969697" opacity="1.000000" stroke="none" d=" M879.654663,1092.142822 C878.839233,1092.594971 877.659119,1092.963745 876.229736,1093.140747 C877.083618,1092.652588 878.186707,1092.356079 879.654663,1092.142822 z"/><path fill="#949494" opacity="1.000000" stroke="none" d=" M1217.656494,1056.130127 C1216.839478,1056.582275 1215.657471,1056.951416 1214.225952,1057.128418 C1215.081421,1056.639893 1216.186401,1056.343506 1217.656494,1056.130127 z"/><path fill="#909090" opacity="1.000000" stroke="none" d=" M979.688354,1081.124512 C979.069763,1081.618530 978.111389,1082.027222 977.067383,1082.179077 C977.770752,1081.627930 978.559692,1081.333618 979.688354,1081.124512 z"/><path fill="#909090" opacity="1.000000" stroke="none" d=" M991.662354,1080.125244 C990.842529,1080.582397 989.657104,1080.953491 988.223877,1081.128784 C989.082947,1080.635132 990.189880,1080.337280 991.662354,1080.125244 z"/><path fill="#939394" opacity="1.000000" stroke="none" d=" M709.657776,1110.134766 C708.840515,1110.589233 707.658142,1110.959351 706.227051,1111.135742 C707.083069,1110.644653 708.187805,1110.347534 709.657776,1110.134766 z"/><path fill="#929292" opacity="1.000000" stroke="none" d=" M1104.659180,1068.126953 C1103.841064,1068.582397 1102.657471,1068.953735 1101.225342,1069.130371 C1102.082397,1068.638184 1103.188110,1068.340454 1104.659180,1068.126953 z"/><path fill="#929292" opacity="1.000000" stroke="none" d=" M1092.693359,1069.134277 C1092.082520,1069.696045 1091.140015,1070.179688 1090.088135,1070.429199 C1090.773071,1069.815430 1091.567383,1069.435791 1092.693359,1069.134277 z"/><path fill="#8098B4" opacity="1.000000" stroke="none" d=" M1200.614014,104.089790 C1201.001953,104.159309 1201.002808,104.585846 1200.989990,105.015709 C1200.977173,105.445572 1200.958008,105.879433 1200.958008,105.879433 C1200.242798,105.865273 1199.527588,105.851112 1198.301025,105.616898 C1197.520874,104.940208 1197.252075,104.483574 1196.983276,104.026947 C1196.983276,104.026962 1197.029419,103.974319 1197.052856,103.948273 C1198.126221,103.954903 1199.176025,103.987587 1200.614014,104.089790 z"/><path fill="#909090" opacity="1.000000" stroke="none" d=" M1094.348022,1150.931885 C1094.550903,1150.368408 1095.035034,1149.716309 1095.810913,1149.055786 C1095.611450,1149.645996 1095.120361,1150.244751 1094.348022,1150.931885 z"/><path fill="#929292" opacity="1.000000" stroke="none" d=" M711.793091,1203.088013 C711.619507,1203.477173 711.219421,1203.786011 710.819336,1204.094849 C710.821960,1203.818604 710.824524,1203.542480 710.957397,1203.115723 C711.087708,1202.965210 711.566589,1203.007690 711.793091,1203.088013 z"/><path fill="#929292" opacity="1.000000" stroke="none" d=" M892.327820,1164.899170 C892.414734,1164.279297 892.849670,1163.725952 893.538696,1163.073975 C893.420471,1163.638794 893.048157,1164.302368 892.327820,1164.899170 z"/><path fill="#949494" opacity="1.000000" stroke="none" d=" M1205.716919,1057.129395 C1205.459106,1057.540161 1204.897461,1057.872070 1204.152954,1058.062012 C1204.451050,1057.630249 1204.932129,1057.340454 1205.716919,1057.129395 z"/><path fill="#939394" opacity="1.000000" stroke="none" d=" M683.633179,1128.954712 C683.368469,1129.158203 682.769226,1129.392944 682.074402,1129.414429 C682.418762,1129.129395 682.858765,1129.057739 683.633179,1128.954712 z"/><path fill="#909090" opacity="1.000000" stroke="none" d=" M1093.247314,1193.847778 C1093.127686,1193.598022 1093.292480,1193.402466 1093.638672,1193.114746 C1093.696777,1193.292847 1093.600708,1193.585815 1093.247314,1193.847778 z"/><path fill="#949494" opacity="1.000000" stroke="none" d=" M1255.850220,1052.748779 C1255.606812,1052.865601 1255.412231,1052.701294 1255.122803,1052.359375 C1255.296509,1052.302856 1255.586914,1052.398315 1255.850220,1052.748779 z"/><path fill="#8098B4" opacity="1.000000" stroke="none" d=" M1148.260742,99.034637 C1148.040405,98.999275 1148.031982,98.830727 1148.015747,98.409164 C1148.008057,98.156151 1148.482666,98.033737 1148.727295,98.049309 C1148.930786,98.418457 1148.764404,98.697319 1148.260742,99.034637 z"/><path fill="#909090" opacity="1.000000" stroke="none" d=" M1018.246704,1202.838135 C1018.125305,1202.582031 1018.289673,1202.389648 1018.637817,1202.110962 C1018.695557,1202.291748 1018.599182,1202.584229 1018.246704,1202.838135 z"/><path fill="#929292" opacity="1.000000" stroke="none" d=" M893.249023,1217.847534 C893.130554,1217.600098 893.294861,1217.405396 893.639038,1217.118042 C893.696411,1217.294434 893.600769,1217.585938 893.249023,1217.847534 z"/><path fill="#AA7B89" opacity="1.000000" stroke="none" d=" M284.672699,338.012634 C283.607544,338.687561 282.081299,339.871155 280.517120,339.923706 C266.434937,340.396301 252.345474,340.646667 238.259964,341.029541 C236.248062,341.084229 234.245895,341.497833 233.022614,341.648682 C233.022614,487.481750 233.022614,633.255920 232.712891,779.502686 C231.929169,779.984314 231.455185,779.993408 230.981186,780.002441 C230.973572,773.003906 230.973679,766.005432 230.957245,759.006897 C230.636566,622.557983 230.313828,486.109100 229.992935,349.660217 C229.988235,347.660675 230.100250,345.655304 229.984268,343.662781 C229.781876,340.186035 231.431351,339.024689 234.778381,338.975586 C251.251511,338.733917 267.722382,338.338135 284.672699,338.012634 z"/><path fill="#AA7482" opacity="1.000000" stroke="none" d=" M381.328918,789.628540 C381.096802,787.835205 381.005798,785.673035 381.005737,783.510925 C380.999756,636.639404 381.001038,489.767853 381.001678,342.896332 C381.001678,340.774719 381.001678,338.653107 381.001678,335.609070 C373.630402,336.077759 366.766632,336.517151 359.902252,336.946686 C359.072205,336.998627 358.238159,336.984253 357.407013,337.022705 C350.310608,337.350555 343.216125,337.879486 336.117493,337.943024 C331.705231,337.982513 327.286743,337.319458 322.441498,336.909851 C327.588440,336.451233 333.163666,336.034515 338.742615,335.676392 C339.728455,335.613098 340.735718,335.900238 341.723297,335.846130 C353.668030,335.191925 365.622711,334.656189 377.547028,333.731720 C381.104736,333.455872 382.045135,334.829803 381.994080,337.871338 C381.971710,339.204010 382.004242,340.537537 382.004242,341.870697 C382.006165,488.686981 382.009644,635.503296 381.988007,782.319580 C381.987671,784.632996 381.677887,786.946411 381.328918,789.628540 z"/><path fill="#AA7988" opacity="1.000000" stroke="none" d=" M245.094482,780.962463 C255.491440,781.306274 266.043304,780.650391 276.248444,782.231812 C290.963135,784.512146 305.687714,784.457764 320.443481,785.093445 C333.048431,785.636536 345.619720,786.981323 358.199341,788.048279 C359.078613,788.122803 359.903900,788.834167 360.957031,789.610413 C337.501770,788.424561 313.844269,786.869690 290.185425,785.335449 C282.901428,784.863098 275.616089,784.403809 268.327240,784.016296 C260.706055,783.611145 253.077438,783.342529 245.458862,782.897827 C244.400848,782.836060 243.381729,782.107849 242.538483,781.348022 C243.519730,780.992737 244.307114,780.977600 245.094482,780.962463 z"/><path fill="#915F6B" opacity="1.000000" stroke="none" d=" M417.046326,122.426628 C417.705017,123.867912 418.892883,125.777130 418.910278,127.696953 C419.059479,144.164322 418.996918,160.633636 418.996399,177.576141 C418.333679,176.545593 417.108643,175.045578 417.097107,173.536285 C416.967773,156.658157 417.025482,139.778625 417.046326,122.426628 z"/><path fill="#AA7482" opacity="1.000000" stroke="none" d=" M362.359131,790.328918 C368.046204,790.407959 374.084106,790.666138 380.543457,790.881348 C379.453491,791.489868 377.879822,792.805115 376.442139,792.670288 C371.837616,792.238403 367.283508,791.269653 362.359131,790.328918 z"/><path fill="#AA7988" opacity="1.000000" stroke="none" d=" M314.657867,337.019226 C312.805298,337.358002 310.479156,337.925140 308.144775,337.961121 C301.084259,338.069977 294.020508,337.972809 286.494263,337.896240 C295.413849,337.559326 304.797180,337.282043 314.657867,337.019226 z"/><path fill="#AA7B89" opacity="1.000000" stroke="none" d=" M244.864319,780.606628 C244.307114,780.977600 243.519730,780.992737 242.337112,781.018311 C240.210770,781.279846 238.479691,781.531006 236.376617,781.554932 C236.003647,780.940857 236.002670,780.553955 236.001694,780.167053 C238.879181,780.194946 241.756683,780.222900 244.864319,780.606628 z"/><path fill="#AA7988" opacity="1.000000" stroke="none" d=" M235.645447,780.098389 C236.002670,780.553955 236.003647,780.940857 236.006165,781.616089 C234.438736,781.481506 232.869751,781.058655 231.140976,780.319153 C231.455185,779.993408 231.929169,779.984314 232.758484,779.966675 C233.838928,779.981934 234.564072,780.005798 235.645447,780.098389 z"/><path fill="#647C96" opacity="1.000000" stroke="none" d=" M1153.758789,211.357574 C1154.116089,216.423279 1154.279297,221.850739 1154.249756,227.639908 C1153.892944,222.574188 1153.728882,217.146774 1153.758789,211.357574 z"/><path fill="#647C96" opacity="1.000000" stroke="none" d=" M888.250793,153.645721 C887.897461,149.574936 887.735962,145.144608 887.768921,140.355804 C888.123108,144.426956 888.282898,148.856552 888.250793,153.645721 z"/><path fill="#667E97" opacity="1.000000" stroke="none" d=" M832.976685,180.490570 C837.032654,183.913849 834.135620,188.807205 834.813660,193.644379 C834.164978,189.727142 833.575684,185.339005 832.976685,180.490570 z"/><path fill="#667E97" opacity="1.000000" stroke="none" d=" M834.767944,225.354919 C835.270569,229.056183 835.578491,233.113831 835.836304,237.639374 C835.381836,233.975266 834.977478,229.843277 834.767944,225.354919 z"/><path fill="#667E97" opacity="1.000000" stroke="none" d=" M1205.214966,226.658524 C1204.869141,223.897568 1204.718262,220.793289 1204.754639,217.343155 C1205.097900,220.103271 1205.253906,223.209229 1205.214966,226.658524 z"/><path fill="#68809A" opacity="1.000000" stroke="none" d=" M726.228027,156.662354 C725.734192,154.585800 725.430420,152.181198 725.184326,149.348297 C725.633972,151.391403 726.026001,153.862854 726.228027,156.662354 z"/><path fill="#647C96" opacity="1.000000" stroke="none" d=" M1152.140869,158.314148 C1152.582275,159.430984 1152.988403,160.930130 1153.217529,162.716003 C1152.729004,161.567322 1152.417480,160.131882 1152.140869,158.314148 z"/><path fill="#647C96" opacity="1.000000" stroke="none" d=" M953.254639,193.126404 C954.171387,192.856689 955.337158,192.779175 956.750671,192.899399 C955.833496,193.170959 954.668640,193.244781 953.254639,193.126404 z"/><path fill="#647C96" opacity="1.000000" stroke="none" d=" M683.298523,164.132690 C684.268799,164.038101 685.531616,164.150711 686.954346,164.518005 C685.939880,164.628418 684.765503,164.484161 683.298523,164.132690 z"/><path fill="#647C96" opacity="1.000000" stroke="none" d=" M1009.221863,199.110260 C1009.858826,198.856140 1010.712036,198.781342 1011.781921,198.885864 C1011.145081,199.140015 1010.291626,199.214813 1009.221863,199.110260 z"/><path fill="#647C96" opacity="1.000000" stroke="none" d=" M1019.272949,200.157471 C1019.951172,200.075012 1020.898438,200.186325 1021.982422,200.535416 C1021.260071,200.632523 1020.401062,200.491867 1019.272949,200.157471 z"/><path fill="#667E97" opacity="1.000000" stroke="none" d=" M1202.024414,275.483398 C1202.678467,275.192993 1203.475464,275.140381 1204.672119,275.110840 C1204.103638,275.329651 1203.135620,275.525452 1202.024414,275.483398 z"/><path fill="#647C96" opacity="1.000000" stroke="none" d=" M999.004150,197.466156 C999.729065,197.367340 1000.593567,197.507431 1001.728394,197.843033 C1001.047058,197.927383 1000.095459,197.816223 999.004150,197.466156 z"/><path fill="#647C96" opacity="1.000000" stroke="none" d=" M674.221924,163.113892 C674.858337,162.857834 675.711243,162.780640 676.781677,162.881744 C676.145630,163.137604 675.292053,163.215179 674.221924,163.113892 z"/><path fill="#647C96" opacity="1.000000" stroke="none" d=" M896.220642,128.105743 C896.860168,127.858192 897.714600,127.791016 898.783691,127.907021 C898.144043,128.155502 897.289795,128.220810 896.220642,128.105743 z"/><path fill="#647C96" opacity="1.000000" stroke="none" d=" M963.272217,194.155273 C963.951172,194.071350 964.898926,194.182312 965.983826,194.530457 C965.261047,194.628464 964.401001,194.489304 963.272217,194.155273 z"/><path fill="#647C96" opacity="1.000000" stroke="none" d=" M942.843506,159.177826 C943.069824,159.543488 943.164429,160.092484 943.122375,160.823730 C942.894470,160.457703 942.803162,159.909439 942.843506,159.177826 z"/><path fill="#667E97" opacity="1.000000" stroke="none" d=" M1211.172607,164.072052 C1211.552124,163.865387 1212.102051,163.810379 1212.823975,163.903015 C1212.445068,164.108337 1211.894165,164.166016 1211.172607,164.072052 z"/><path fill="#647C96" opacity="1.000000" stroke="none" d=" M1149.997314,156.484314 C1150.506836,156.596680 1151.161865,156.955597 1151.944946,157.575775 C1151.429565,157.468338 1150.786133,157.099609 1149.997314,156.484314 z"/><path fill="#647C96" opacity="1.000000" stroke="none" d=" M944.034607,191.276077 C944.491638,191.255524 945.025879,191.463562 945.778931,191.861404 C945.369141,191.869034 944.740479,191.686859 944.034607,191.276077 z"/><path fill="#915F6B" opacity="1.000000" stroke="none" d=" M595.937256,46.296627 C597.145508,46.096642 598.211365,46.132092 599.673462,46.237133 C598.616577,46.866589 597.163391,47.426449 595.334412,47.970718 C595.237366,47.480770 595.516113,47.006416 595.937256,46.296627 z"/><path fill="#915F6B" opacity="1.000000" stroke="none" d=" M608.183105,46.861702 C608.996521,46.263119 610.173645,45.700977 611.705444,45.180099 C610.888977,45.780285 609.717896,46.339214 608.183105,46.861702 z"/><path fill="#667E97" opacity="1.000000" stroke="none" d=" M668.786743,133.738113 C668.327576,131.671799 667.935486,129.168762 667.723389,126.333122 C668.220276,128.434143 668.537109,130.867767 668.786743,133.738113 z"/><path fill="#68809A" opacity="1.000000" stroke="none" d=" M1201.287354,106.102165 C1200.958008,105.879433 1200.977173,105.445572 1200.990967,105.228989 C1203.157959,105.506447 1205.311035,106.000496 1207.753540,106.710526 C1205.900879,106.725967 1203.758789,106.525429 1201.287354,106.102165 z"/><path fill="#68809A" opacity="1.000000" stroke="none" d=" M1196.556519,104.044304 C1197.252075,104.483574 1197.520874,104.940208 1197.943359,105.611320 C1196.162476,105.503815 1194.227783,105.181831 1192.074219,104.583862 C1193.280029,104.225815 1194.704834,104.143738 1196.556519,104.044304 z"/><path fill="#68809A" opacity="1.000000" stroke="none" d=" M1151.098633,99.604210 C1152.500000,99.644951 1154.108154,99.956284 1155.910522,100.562836 C1154.504883,100.530304 1152.905151,100.202553 1151.098633,99.604210 z"/><path fill="#68809A" opacity="1.000000" stroke="none" d=" M1241.063965,110.567459 C1242.166504,110.594528 1243.472168,110.890671 1244.979492,111.460060 C1243.876465,111.434387 1242.571655,111.135460 1241.063965,110.567459 z"/><path fill="#68809A" opacity="1.000000" stroke="none" d=" M1232.033691,109.511154 C1233.050903,109.407356 1234.232422,109.555214 1235.700317,109.925224 C1234.723755,110.019188 1233.460815,109.890999 1232.033691,109.511154 z"/><path fill="#68809A" opacity="1.000000" stroke="none" d=" M1182.009277,103.478622 C1182.732300,103.373055 1183.597656,103.504311 1184.731445,103.833595 C1184.050659,103.926231 1183.101074,103.820839 1182.009277,103.478622 z"/><path fill="#68809A" opacity="1.000000" stroke="none" d=" M1132.936035,97.461578 C1133.389282,97.394279 1133.960083,97.529099 1134.765747,97.846542 C1134.351562,97.907349 1133.702515,97.785522 1132.936035,97.461578 z"/><path fill="#68809A" opacity="1.000000" stroke="none" d=" M1141.975098,98.508667 C1142.488403,98.590218 1143.161133,98.912979 1143.983398,99.481918 C1143.466797,99.402016 1142.800781,99.075943 1141.975098,98.508667 z"/><path fill="#68809A" opacity="1.000000" stroke="none" d=" M1224.187744,109.181168 C1224.550415,108.955772 1225.096313,108.856026 1225.819580,108.899605 C1225.455078,109.130882 1224.913086,109.218842 1224.187744,109.181168 z"/><path fill="#929292" opacity="1.000000" stroke="none" d=" M970.957275,1142.248901 C973.389282,1141.980469 975.717163,1141.982056 978.480896,1141.977295 C977.044434,1144.649414 974.482727,1144.823486 970.957275,1142.248901 z"/><path fill="#929292" opacity="1.000000" stroke="none" d=" M971.842285,1114.091797 C971.936157,1114.623535 971.783386,1115.208496 971.344360,1115.904663 C971.237244,1115.392334 971.416504,1114.768677 971.842285,1114.091797 z"/></svg>